<svg xmlns="http://www.w3.org/2000/svg" width="1200" height="200" viewBox="0 0 2400 400">
<defs>
  <linearGradient id="bg1" x1="0%" y1="0%" x2="0%" y2="100%">
    <stop offset="0%" stop-color="#7A5A44"/>
    <stop offset="100%" stop-color="#EDE6D9"/>
  </linearGradient>
</defs>
<rect width="100%" height="100%" fill="url(#bg1)"/>
<path d="M 0 400 L 0,315 150,347 300,320 450,329 600,317 750,338 900,344 1050,309 1200,323 1350,344 1500,377 1650,349 1800,343 1950,316 2100,360 2250,326 2400,325 L 2400,400 Z" fill="#7A5A44" stroke="none"/>
<path d="M 0 400 L 0,279 160,316 320,277 480,283 640,287 800,295 960,264 1120,298 1280,315 1440,261 1600,257 1760,316 1920,257 2080,322 2240,281 2400,279 L 2400,400 Z" fill="#9B8268" stroke="none"/>
<path d="M 0 400 L 0,246 160,263 320,240 480,244 640,231 800,234 960,213 1120,227 1280,230 1440,232 1600,253 1760,217 1920,259 2080,245 2240,229 2400,232 L 2400,400 Z" fill="#EDE6D9" stroke="none"/>
<path d="M 0 400 L 0,199 160,191 320,172 480,187 640,186 800,185 960,194 1120,173 1280,172 1440,175 1600,173 1760,188 1920,194 2080,174 2240,194 2400,162 L 2400,400 Z" fill="#7A5A44" stroke="none"/>
<path d="M 0 400 L 0,147 126,126 252,129 378,141 505,136 631,133 757,137 884,134 1010,128 1136,114 1263,136 1389,126 1515,115 1642,141 1768,139 1894,124 2021,136 2147,118 2273,119 2400,137 L 2400,400 Z" fill="#9B8268" stroke="none"/>
<path d="M 0 400 L 0,78 126,70 252,75 378,79 505,90 631,69 757,70 884,77 1010,89 1136,87 1263,79 1389,83 1515,90 1642,74 1768,85 1894,72 2021,91 2147,69 2273,90 2400,89 L 2400,400 Z" fill="#EDE6D9" stroke="none"/>
<polygon points="396,148 387,176 405,176" fill="#0b0b0b" />
<polygon points="1837,154 1829,178 1845,178" fill="#0b0b0b" />
<polygon points="194,160 186,184 202,184" fill="#0b0b0b" />
<polygon points="1931,154 1924,177 1938,177" fill="#0b0b0b" />
<polygon points="1151,149 1144,170 1158,170" fill="#0b0b0b" />
<polygon points="967,156 960,179 974,179" fill="#0b0b0b" />
<polygon points="937,165 933,179 941,179" fill="#0b0b0b" />
<polygon points="1182,146 1174,170 1190,170" fill="#0b0b0b" />
<polygon points="342,164 337,181 347,181" fill="#0b0b0b" />
<polygon points="418,158 413,175 423,175" fill="#0b0b0b" />
<polygon points="2022,153 2013,180 2031,180" fill="#0b0b0b" />
<polygon points="2177,149 2170,171 2184,171" fill="#0b0b0b" />
<polygon points="293,152 283,183 303,183" fill="#0b0b0b" />
<polygon points="1518,164 1514,178 1522,178" fill="#0b0b0b" />
<polygon points="1863,164 1859,178 1867,178" fill="#0b0b0b" />
<polygon points="1992,153 1985,176 1999,176" fill="#0b0b0b" />
<polygon points="944,159 938,179 950,179" fill="#0b0b0b" />
<polygon points="405,147 396,176 414,176" fill="#0b0b0b" />
<polygon points="1612,138 1602,170 1622,170" fill="#0b0b0b" />
<polygon points="669,145 659,175 679,175" fill="#0b0b0b" />
<polygon points="2330,163 2323,184 2337,184" fill="#0b0b0b" />
<polygon points="2311,172 2306,187 2316,187" fill="#0b0b0b" />
<polygon points="1792,150 1783,178 1801,178" fill="#0b0b0b" />
<polygon points="2271,156 2262,185 2280,185" fill="#0b0b0b" />
<polygon points="412,145 402,175 422,175" fill="#0b0b0b" />
<polygon points="1606,154 1601,170 1611,170" fill="#0b0b0b" />
<polygon points="2022,157 2015,180 2029,180" fill="#0b0b0b" />
<polygon points="1122,149 1115,172 1129,172" fill="#0b0b0b" />
<polygon points="2204,155 2199,171 2209,171" fill="#0b0b0b" />
<polygon points="834,166 828,184 840,184" fill="#0b0b0b" />
<polygon points="1616,152 1610,170 1622,170" fill="#0b0b0b" />
<circle cx="965" cy="78" r="76" fill="#9e7e68" opacity="0.12"/>
</svg>