<svg xmlns="http://www.w3.org/2000/svg" width="2400" height="400" viewBox="0 0 2400 400">
<defs>
  <linearGradient id="bg4" x1="0%" y1="0%" x2="0%" y2="100%">
    <stop offset="0%" stop-color="#3E2A21"/>
    <stop offset="100%" stop-color="#BFAFA2"/>
  </linearGradient>
</defs>
<rect width="100%" height="100%" fill="url(#bg4)"/>
<path d="M 0 400 L 0,360 133,373 266,370 400,328 533,348 666,379 800,326 933,314 1066,352 1200,323 1333,375 1466,327 1600,302 1733,343 1866,371 2000,334 2133,354 2266,312 2400,314 L 2400,400 Z" fill="#3E2A21" stroke="none"/>
<path d="M 0 400 L 0,267 150,269 300,299 450,275 600,280 750,303 900,260 1050,263 1200,258 1350,307 1500,267 1650,262 1800,311 1950,295 2100,256 2250,255 2400,266 L 2400,400 Z" fill="#6E5449" stroke="none"/>
<path d="M 0 400 L 0,219 141,227 282,258 423,231 564,224 705,215 847,232 988,260 1129,260 1270,229 1411,235 1552,232 1694,209 1835,251 1976,224 2117,255 2258,219 2400,242 L 2400,400 Z" fill="#BFAFA2" stroke="none"/>
<path d="M 0 400 L 0,191 200,182 400,178 600,197 800,173 1000,201 1200,164 1400,178 1600,167 1800,168 2000,188 2200,182 2400,187 L 2400,400 Z" fill="#3E2A21" stroke="none"/>
<path d="M 0 400 L 0,133 141,122 282,143 423,142 564,140 705,140 847,134 988,141 1129,146 1270,142 1411,115 1552,114 1694,125 1835,123 1976,134 2117,141 2258,137 2400,144 L 2400,400 Z" fill="#6E5449" stroke="none"/>
<path d="M 0 400 L 0,88 218,74 436,87 654,75 872,90 1090,80 1309,87 1527,86 1745,89 1963,76 2181,86 2400,78 L 2400,400 Z" fill="#BFAFA2" stroke="none"/>
<polygon points="1480,158 1470,188 1490,188" fill="#0b0b0b" />
<polygon points="144,149 134,179 154,179" fill="#0b0b0b" />
<polygon points="361,162 357,175 365,175" fill="#0b0b0b" />
<polygon points="1040,161 1030,191 1050,191" fill="#0b0b0b" />
<polygon points="431,153 426,169 436,169" fill="#0b0b0b" />
<polygon points="1374,172 1370,185 1378,185" fill="#0b0b0b" />
<polygon points="1661,143 1652,172 1670,172" fill="#0b0b0b" />
<polygon points="1776,156 1771,173 1781,173" fill="#0b0b0b" />
<polygon points="375,158 370,173 380,173" fill="#0b0b0b" />
<polygon points="2069,162 2062,183 2076,183" fill="#0b0b0b" />
<polygon points="1284,152 1276,178 1292,178" fill="#0b0b0b" />
<polygon points="1177,145 1167,175 1187,175" fill="#0b0b0b" />
<polygon points="2329,156 2324,172 2334,172" fill="#0b0b0b" />
<polygon points="942,154 937,171 947,171" fill="#0b0b0b" />
<polygon points="713,161 705,185 721,185" fill="#0b0b0b" />
<polygon points="947,149 940,172 954,172" fill="#0b0b0b" />
<polygon points="1689,141 1679,172 1699,172" fill="#0b0b0b" />
<polygon points="659,159 653,177 665,177" fill="#0b0b0b" />
<polygon points="902,149 894,174 910,174" fill="#0b0b0b" />
<polygon points="1921,143 1912,170 1930,170" fill="#0b0b0b" />
<polygon points="765,159 757,185 773,185" fill="#0b0b0b" />
<polygon points="946,146 938,171 954,171" fill="#0b0b0b" />
<polygon points="407,143 399,169 415,169" fill="#0b0b0b" />
<polygon points="2264,158 2259,175 2269,175" fill="#0b0b0b" />
<polygon points="541,159 536,176 546,176" fill="#0b0b0b" />
<polygon points="1161,153 1154,175 1168,175" fill="#0b0b0b" />
<polygon points="2276,150 2268,174 2284,174" fill="#0b0b0b" />
<polygon points="1514,165 1508,185 1520,185" fill="#0b0b0b" />
<polygon points="70,149 61,176 79,176" fill="#0b0b0b" />
<polygon points="1196,160 1191,175 1201,175" fill="#0b0b0b" />
<polygon points="1429,176 1425,188 1433,188" fill="#0b0b0b" />
</svg>