<svg xmlns="http://www.w3.org/2000/svg" width="1200" height="200" viewBox="0 0 2400 400">
<defs>
  <linearGradient id="bg5" x1="0%" y1="0%" x2="0%" y2="100%">
    <stop offset="0%" stop-color="#8F6B4B"/>
    <stop offset="100%" stop-color="#E6D9CC"/>
  </linearGradient>
  <filter id="blur5" x="-30%" y="-30%" width="160%" height="160%">
    <feGaussianBlur stdDeviation="2.0"/>
  </filter>
</defs>
<rect width="100%" height="100%" fill="url(#bg5)"/>
<path d="M 0 400 L 0,338 150,316 300,311 450,304 600,302 750,313 900,338 1050,347 1200,348 1350,353 1500,365 1650,375 1800,319 1950,321 2100,377 2250,338 2400,342 L 2400,400 Z" fill="#8F6B4B" stroke="none"/>
<path d="M 0 400 L 0,298 200,309 400,264 600,293 800,293 1000,320 1200,262 1400,311 1600,322 1800,312 2000,317 2200,312 2400,306 L 2400,400 Z" fill="#B39174" stroke="none"/>
<path d="M 0 400 L 0,259 160,237 320,243 480,262 640,259 800,277 960,260 1120,226 1280,231 1440,280 1600,262 1760,283 1920,236 2080,229 2240,246 2400,271 L 2400,400 Z" fill="#E6D9CC" stroke="none"/>
<path d="M 0 400 L 0,231 171,214 342,197 514,219 685,198 857,213 1028,228 1200,197 1371,236 1542,234 1714,205 1885,191 2057,224 2228,227 2400,229 L 2400,400 Z" fill="#8F6B4B" stroke="none"/>
<path d="M 0 400 L 0,165 133,167 266,170 400,152 533,173 666,168 800,185 933,172 1066,161 1200,163 1333,145 1466,154 1600,177 1733,158 1866,166 2000,182 2133,166 2266,167 2400,154 L 2400,400 Z" fill="#B39174" stroke="none"/>
<path d="M 0 400 L 0,123 126,134 252,132 378,127 505,131 631,122 757,129 884,123 1010,130 1136,133 1263,126 1389,116 1515,129 1642,108 1768,137 1894,137 2021,127 2147,136 2273,129 2400,132 L 2400,400 Z" fill="#E6D9CC" stroke="none"/>
<path d="M 0 400 L 0,84 141,77 282,73 423,69 564,69 705,85 847,77 988,76 1129,72 1270,81 1411,80 1552,83 1694,69 1835,85 1976,82 2117,73 2258,74 2400,71 L 2400,400 Z" fill="#8F6B4B" stroke="none"/>
<polygon points="221,155 215,175 227,175" fill="#0b0b0b" />
<polygon points="2005,148 1998,170 2012,170" fill="#0b0b0b" />
<polygon points="2067,148 2058,176 2076,176" fill="#0b0b0b" />
<polygon points="1046,159 1040,179 1052,179" fill="#0b0b0b" />
<polygon points="2388,170 2382,189 2394,189" fill="#0b0b0b" />
<polygon points="685,163 680,178 690,178" fill="#0b0b0b" />
<polygon points="715,152 705,183 725,183" fill="#0b0b0b" />
<polygon points="61,164 57,177 65,177" fill="#0b0b0b" />
<polygon points="1218,155 1212,175 1224,175" fill="#0b0b0b" />
<polygon points="1636,154 1628,178 1644,178" fill="#0b0b0b" />
<polygon points="457,158 449,184 465,184" fill="#0b0b0b" />
<polygon points="784,162 779,179 789,179" fill="#0b0b0b" />
<polygon points="2107,145 2097,177 2117,177" fill="#0b0b0b" />
<polygon points="743,162 736,183 750,183" fill="#0b0b0b" />
<polygon points="373,153 363,185 383,185" fill="#0b0b0b" />
<polygon points="1865,175 1861,187 1869,187" fill="#0b0b0b" />
<polygon points="21,152 13,177 29,177" fill="#0b0b0b" />
<polygon points="316,166 309,189 323,189" fill="#0b0b0b" />
<polygon points="2095,156 2088,177 2102,177" fill="#0b0b0b" />
<polygon points="1098,169 1094,183 1102,183" fill="#0b0b0b" />
<g filter="url(#blur5)">
  <rect width="100%" height="100%" fill="#E6D9CC" opacity="0.06"/>
</g>
</svg>