<svg xmlns="http://www.w3.org/2000/svg" width="2400" height="400" viewBox="0 0 2400 400">
<defs>
  <linearGradient id="bg7" x1="0%" y1="0%" x2="0%" y2="100%">
    <stop offset="0%" stop-color="#7D9A72"/>
    <stop offset="100%" stop-color="#EAF6E7"/>
  </linearGradient>
  <filter id="blur7" x="-30%" y="-30%" width="160%" height="160%">
    <feGaussianBlur stdDeviation="3.4"/>
  </filter>
</defs>
<rect width="100%" height="100%" fill="url(#bg7)"/>
<path d="M 0 400 L 0,362 141,336 282,368 423,331 564,320 705,301 847,341 988,349 1129,336 1270,371 1411,307 1552,373 1694,353 1835,340 1976,372 2117,330 2258,368 2400,342 L 2400,400 Z" fill="#7D9A72" stroke="none"/>
<path d="M 0 400 L 0,234 126,248 252,250 378,227 505,251 631,247 757,253 884,265 1010,259 1136,275 1263,263 1389,244 1515,250 1642,267 1768,259 1894,255 2021,269 2147,244 2273,231 2400,277 L 2400,400 Z" fill="#B7D3B0" stroke="none"/>
<path d="M 0 400 L 0,153 160,150 320,162 480,186 640,159 800,155 960,187 1120,146 1280,149 1440,169 1600,184 1760,149 1920,161 2080,164 2240,169 2400,164 L 2400,400 Z" fill="#EAF6E7" stroke="none"/>
<path d="M 0 400 L 0,84 133,70 266,87 400,88 533,84 666,81 800,84 933,72 1066,73 1200,77 1333,86 1466,72 1600,68 1733,91 1866,78 2000,80 2133,77 2266,83 2400,85 L 2400,400 Z" fill="#7D9A72" stroke="none"/>
<polygon points="1664,169 1659,184 1669,184" fill="#0b0b0b" />
<polygon points="786,163 779,185 793,185" fill="#0b0b0b" />
<polygon points="1473,160 1468,177 1478,177" fill="#0b0b0b" />
<polygon points="2252,168 2248,181 2256,181" fill="#0b0b0b" />
<polygon points="2286,168 2282,180 2290,180" fill="#0b0b0b" />
<polygon points="1676,163 1669,184 1683,184" fill="#0b0b0b" />
<polygon points="1260,162 1254,181 1266,181" fill="#0b0b0b" />
<polygon points="739,157 732,179 746,179" fill="#0b0b0b" />
<polygon points="688,164 684,176 692,176" fill="#0b0b0b" />
<polygon points="925,158 918,181 932,181" fill="#0b0b0b" />
<polygon points="2352,158 2345,181 2359,181" fill="#0b0b0b" />
<polygon points="908,161 901,182 915,182" fill="#0b0b0b" />
<polygon points="1868,158 1858,190 1878,190" fill="#0b0b0b" />
<polygon points="2037,160 2031,178 2043,178" fill="#0b0b0b" />
<polygon points="2107,155 2100,176 2114,176" fill="#0b0b0b" />
<polygon points="2081,146 2072,175 2090,175" fill="#0b0b0b" />
<polygon points="1800,163 1791,190 1809,190" fill="#0b0b0b" />
<polygon points="1753,175 1749,189 1757,189" fill="#0b0b0b" />
<polygon points="2149,164 2144,180 2154,180" fill="#0b0b0b" />
<polygon points="1933,174 1929,186 1937,186" fill="#0b0b0b" />
<polygon points="1599,164 1591,188 1607,188" fill="#0b0b0b" />
<polygon points="1238,153 1229,180 1247,180" fill="#0b0b0b" />
<circle cx="774" cy="140" r="63" fill="#a1be96" opacity="0.12"/>
<g filter="url(#blur7)">
  <rect width="100%" height="100%" fill="#EAF6E7" opacity="0.06"/>
</g>
</svg>