<svg xmlns="http://www.w3.org/2000/svg" width="2400" height="400" viewBox="0 0 2400 400">
<defs>
  <linearGradient id="bg9" x1="0%" y1="0%" x2="0%" y2="100%">
    <stop offset="0%" stop-color="#4B6B6B"/>
    <stop offset="100%" stop-color="#D9EFEF"/>
  </linearGradient>
</defs>
<rect width="100%" height="100%" fill="url(#bg9)"/>
<path d="M 0 400 L 0,370 171,358 342,344 514,354 685,365 857,360 1028,334 1200,353 1371,315 1542,368 1714,369 1885,342 2057,356 2228,364 2400,333 L 2400,400 Z" fill="#4B6B6B" stroke="none"/>
<path d="M 0 400 L 0,258 171,246 342,253 514,283 685,241 857,266 1028,271 1200,269 1371,277 1542,229 1714,261 1885,269 2057,282 2228,236 2400,251 L 2400,400 Z" fill="#7AA1A1" stroke="none"/>
<path d="M 0 400 L 0,169 218,176 436,152 654,160 872,146 1090,162 1309,181 1527,147 1745,162 1963,179 2181,182 2400,171 L 2400,400 Z" fill="#D9EFEF" stroke="none"/>
<path d="M 0 400 L 0,89 171,74 342,81 514,82 685,71 857,70 1028,86 1200,85 1371,83 1542,91 1714,82 1885,89 2057,75 2228,73 2400,78 L 2400,400 Z" fill="#4B6B6B" stroke="none"/>
<polygon points="943,139 934,168 952,168" fill="#0b0b0b" />
<polygon points="1683,142 1673,173 1693,173" fill="#0b0b0b" />
<polygon points="1767,162 1760,183 1774,183" fill="#0b0b0b" />
<polygon points="1284,163 1280,175 1288,175" fill="#0b0b0b" />
<polygon points="1442,175 1438,187 1446,187" fill="#0b0b0b" />
<polygon points="295,168 288,189 302,189" fill="#0b0b0b" />
<polygon points="2223,155 2218,172 2228,172" fill="#0b0b0b" />
<polygon points="429,146 419,176 439,176" fill="#0b0b0b" />
<polygon points="2085,161 2078,182 2092,182" fill="#0b0b0b" />
<polygon points="119,148 112,170 126,170" fill="#0b0b0b" />
<polygon points="1945,158 1936,186 1954,186" fill="#0b0b0b" />
<polygon points="1575,165 1570,182 1580,182" fill="#0b0b0b" />
<polygon points="2377,153 2367,185 2387,185" fill="#0b0b0b" />
<polygon points="1964,162 1957,184 1971,184" fill="#0b0b0b" />
<polygon points="40,153 31,182 49,182" fill="#0b0b0b" />
<polygon points="624,145 616,169 632,169" fill="#0b0b0b" />
<polygon points="2348,150 2339,179 2357,179" fill="#0b0b0b" />
<polygon points="840,146 833,169 847,169" fill="#0b0b0b" />
<polygon points="589,146 581,170 597,170" fill="#0b0b0b" />
<polygon points="1672,150 1665,172 1679,172" fill="#0b0b0b" />
<polygon points="1090,153 1084,173 1096,173" fill="#0b0b0b" />
<polygon points="1261,159 1256,174 1266,174" fill="#0b0b0b" />
<polygon points="322,167 315,190 329,190" fill="#0b0b0b" />
<polygon points="2130,163 2125,178 2135,178" fill="#0b0b0b" />
<rect width="100%" height="100%" fill="#ffffff" opacity="0.06" />
<circle cx="1857" cy="33" r="1" fill="#f0f0f0" opacity="0.9"/>
<circle cx="888" cy="90" r="1" fill="#f0f0f0" opacity="0.9"/>
<circle cx="944" cy="61" r="1" fill="#f0f0f0" opacity="0.9"/>
<circle cx="617" cy="131" r="1" fill="#f0f0f0" opacity="0.9"/>
<circle cx="962" cy="63" r="0" fill="#f0f0f0" opacity="0.9"/>
<circle cx="425" cy="128" r="0" fill="#f0f0f0" opacity="0.9"/>
<circle cx="1343" cy="168" r="0" fill="#f0f0f0" opacity="0.9"/>
<circle cx="2276" cy="198" r="1" fill="#f0f0f0" opacity="0.9"/>
<circle cx="1374" cy="56" r="0" fill="#f0f0f0" opacity="0.9"/>
<circle cx="779" cy="172" r="1" fill="#f0f0f0" opacity="0.9"/>
<circle cx="2178" cy="194" r="1" fill="#f0f0f0" opacity="0.9"/>
<circle cx="1152" cy="163" r="1" fill="#f0f0f0" opacity="0.9"/>
<circle cx="620" cy="47" r="0" fill="#f0f0f0" opacity="0.9"/>
<circle cx="1861" cy="179" r="1" fill="#f0f0f0" opacity="0.9"/>
<circle cx="790" cy="175" r="1" fill="#f0f0f0" opacity="0.9"/>
<circle cx="345" cy="71" r="1" fill="#f0f0f0" opacity="0.9"/>
<circle cx="703" cy="55" r="1" fill="#f0f0f0" opacity="0.9"/>
<circle cx="2203" cy="14" r="0" fill="#f0f0f0" opacity="0.9"/>
<circle cx="2170" cy="31" r="1" fill="#f0f0f0" opacity="0.9"/>
<circle cx="726" cy="37" r="1" fill="#f0f0f0" opacity="0.9"/>
<circle cx="877" cy="89" r="1" fill="#f0f0f0" opacity="0.9"/>
<circle cx="1506" cy="23" r="0" fill="#f0f0f0" opacity="0.9"/>
<circle cx="2207" cy="171" r="1" fill="#f0f0f0" opacity="0.9"/>
<circle cx="984" cy="61" r="0" fill="#f0f0f0" opacity="0.9"/>
<circle cx="170" cy="161" r="0" fill="#f0f0f0" opacity="0.9"/>
<circle cx="478" cy="174" r="1" fill="#f0f0f0" opacity="0.9"/>
<circle cx="1383" cy="44" r="1" fill="#f0f0f0" opacity="0.9"/>
<circle cx="801" cy="48" r="0" fill="#f0f0f0" opacity="0.9"/>
<circle cx="1143" cy="136" r="0" fill="#f0f0f0" opacity="0.9"/>
<circle cx="1503" cy="128" r="0" fill="#f0f0f0" opacity="0.9"/>
<circle cx="1611" cy="76" r="0" fill="#f0f0f0" opacity="0.9"/>
<circle cx="2387" cy="28" r="1" fill="#f0f0f0" opacity="0.9"/>
<circle cx="2083" cy="71" r="0" fill="#f0f0f0" opacity="0.9"/>
<circle cx="1472" cy="52" r="1" fill="#f0f0f0" opacity="0.9"/>
<circle cx="572" cy="22" r="0" fill="#f0f0f0" opacity="0.9"/>
<circle cx="621" cy="37" r="1" fill="#f0f0f0" opacity="0.9"/>
<circle cx="2022" cy="49" r="0" fill="#f0f0f0" opacity="0.9"/>
<circle cx="1509" cy="97" r="0" fill="#f0f0f0" opacity="0.9"/>
<circle cx="439" cy="85" r="0" fill="#f0f0f0" opacity="0.9"/>
<circle cx="1494" cy="126" r="1" fill="#f0f0f0" opacity="0.9"/>
<circle cx="192" cy="144" r="0" fill="#f0f0f0" opacity="0.9"/>
<circle cx="806" cy="192" r="1" fill="#f0f0f0" opacity="0.9"/>
<circle cx="2285" cy="93" r="1" fill="#f0f0f0" opacity="0.9"/>
<circle cx="957" cy="199" r="0" fill="#f0f0f0" opacity="0.9"/>
<circle cx="802" cy="151" r="0" fill="#f0f0f0" opacity="0.9"/>
<circle cx="2342" cy="113" r="1" fill="#f0f0f0" opacity="0.9"/>
<circle cx="130" cy="120" r="1" fill="#f0f0f0" opacity="0.9"/>
<circle cx="833" cy="61" r="1" fill="#f0f0f0" opacity="0.9"/>
<circle cx="799" cy="84" r="0" fill="#f0f0f0" opacity="0.9"/>
<circle cx="2165" cy="77" r="0" fill="#f0f0f0" opacity="0.9"/>
<circle cx="2398" cy="39" r="0" fill="#f0f0f0" opacity="0.9"/>
<circle cx="2327" cy="124" r="0" fill="#f0f0f0" opacity="0.9"/>
<circle cx="740" cy="115" r="1" fill="#f0f0f0" opacity="0.9"/>
<circle cx="1411" cy="9" r="1" fill="#f0f0f0" opacity="0.9"/>
<circle cx="454" cy="176" r="0" fill="#f0f0f0" opacity="0.9"/>
<circle cx="1336" cy="108" r="1" fill="#f0f0f0" opacity="0.9"/>
<circle cx="783" cy="196" r="1" fill="#f0f0f0" opacity="0.9"/>
<circle cx="342" cy="158" r="0" fill="#f0f0f0" opacity="0.9"/>
<circle cx="1807" cy="139" r="1" fill="#f0f0f0" opacity="0.9"/>
<circle cx="1673" cy="25" r="0" fill="#f0f0f0" opacity="0.9"/>
<circle cx="542" cy="153" r="1" fill="#f0f0f0" opacity="0.9"/>
<circle cx="1101" cy="145" r="1" fill="#f0f0f0" opacity="0.9"/>
<circle cx="1208" cy="120" r="0" fill="#f0f0f0" opacity="0.9"/>
<circle cx="1834" cy="174" r="1" fill="#f0f0f0" opacity="0.9"/>
<circle cx="2116" cy="163" r="0" fill="#f0f0f0" opacity="0.9"/>
<circle cx="1508" cy="94" r="0" fill="#f0f0f0" opacity="0.9"/>
<circle cx="2338" cy="85" r="0" fill="#f0f0f0" opacity="0.9"/>
<circle cx="2227" cy="162" r="0" fill="#f0f0f0" opacity="0.9"/>
<circle cx="901" cy="125" r="1" fill="#f0f0f0" opacity="0.9"/>
<circle cx="480" cy="7" r="0" fill="#f0f0f0" opacity="0.9"/>
<circle cx="2349" cy="137" r="0" fill="#f0f0f0" opacity="0.9"/>
<circle cx="1929" cy="14" r="0" fill="#f0f0f0" opacity="0.9"/>
<circle cx="1757" cy="62" r="1" fill="#f0f0f0" opacity="0.9"/>
<circle cx="1470" cy="174" r="0" fill="#f0f0f0" opacity="0.9"/>
<circle cx="1391" cy="154" r="1" fill="#f0f0f0" opacity="0.9"/>
<circle cx="1657" cy="123" r="0" fill="#f0f0f0" opacity="0.9"/>
<circle cx="240" cy="2" r="0" fill="#f0f0f0" opacity="0.9"/>
<circle cx="620" cy="7" r="1" fill="#f0f0f0" opacity="0.9"/>
<circle cx="1571" cy="91" r="0" fill="#f0f0f0" opacity="0.9"/>
<circle cx="2127" cy="130" r="0" fill="#f0f0f0" opacity="0.9"/>
<circle cx="1022" cy="86" r="1" fill="#f0f0f0" opacity="0.9"/>
<circle cx="2261" cy="25" r="0" fill="#f0f0f0" opacity="0.9"/>
<circle cx="1393" cy="45" r="0" fill="#f0f0f0" opacity="0.9"/>
<circle cx="1550" cy="0" r="0" fill="#f0f0f0" opacity="0.9"/>
<circle cx="243" cy="162" r="0" fill="#f0f0f0" opacity="0.9"/>
<circle cx="961" cy="190" r="1" fill="#f0f0f0" opacity="0.9"/>
<circle cx="1487" cy="90" r="0" fill="#f0f0f0" opacity="0.9"/>
<circle cx="909" cy="2" r="0" fill="#f0f0f0" opacity="0.9"/>
<circle cx="721" cy="75" r="0" fill="#f0f0f0" opacity="0.9"/>
<circle cx="1767" cy="35" r="1" fill="#f0f0f0" opacity="0.9"/>
<circle cx="1463" cy="20" r="0" fill="#f0f0f0" opacity="0.9"/>
<circle cx="1638" cy="189" r="0" fill="#f0f0f0" opacity="0.9"/>
<circle cx="1847" cy="47" r="0" fill="#f0f0f0" opacity="0.9"/>
<circle cx="570" cy="132" r="0" fill="#f0f0f0" opacity="0.9"/>
<circle cx="1534" cy="6" r="1" fill="#f0f0f0" opacity="0.9"/>
<circle cx="1897" cy="16" r="1" fill="#f0f0f0" opacity="0.9"/>
<circle cx="797" cy="149" r="1" fill="#f0f0f0" opacity="0.9"/>
<circle cx="98" cy="90" r="1" fill="#f0f0f0" opacity="0.9"/>
<circle cx="1599" cy="181" r="0" fill="#f0f0f0" opacity="0.9"/>
<circle cx="108" cy="19" r="0" fill="#f0f0f0" opacity="0.9"/>
<circle cx="1864" cy="2" r="1" fill="#f0f0f0" opacity="0.9"/>
<circle cx="978" cy="103" r="0" fill="#f0f0f0" opacity="0.9"/>
<circle cx="1921" cy="161" r="0" fill="#f0f0f0" opacity="0.9"/>
<circle cx="797" cy="82" r="0" fill="#f0f0f0" opacity="0.9"/>
<circle cx="698" cy="91" r="0" fill="#f0f0f0" opacity="0.9"/>
<circle cx="1622" cy="75" r="1" fill="#f0f0f0" opacity="0.9"/>
<circle cx="1384" cy="46" r="0" fill="#f0f0f0" opacity="0.9"/>
<circle cx="2003" cy="93" r="0" fill="#f0f0f0" opacity="0.9"/>
<circle cx="1646" cy="56" r="0" fill="#f0f0f0" opacity="0.9"/>
<circle cx="2019" cy="118" r="1" fill="#f0f0f0" opacity="0.9"/>
<circle cx="826" cy="147" r="0" fill="#f0f0f0" opacity="0.9"/>
<circle cx="1952" cy="2" r="1" fill="#f0f0f0" opacity="0.9"/>
</svg>