<svg xmlns="http://www.w3.org/2000/svg" width="1200" height="200" viewBox="0 0 2400 400">
<defs>
  <linearGradient id="bg10" x1="0%" y1="0%" x2="0%" y2="100%">
    <stop offset="0%" stop-color="#2B2B3B"/>
    <stop offset="100%" stop-color="#D9D9F0"/>
  </linearGradient>
</defs>
<rect width="100%" height="100%" fill="url(#bg10)"/>
<path d="M 0 400 L 0,373 141,373 282,349 423,368 564,311 705,308 847,312 988,371 1129,313 1270,305 1411,323 1552,369 1694,331 1835,328 1976,349 2117,319 2258,358 2400,310 L 2400,400 Z" fill="#2B2B3B" stroke="none"/>
<path d="M 0 400 L 0,274 150,285 300,308 450,323 600,290 750,324 900,291 1050,300 1200,302 1350,296 1500,285 1650,325 1800,320 1950,286 2100,299 2250,310 2400,289 L 2400,400 Z" fill="#6B6B8F" stroke="none"/>
<path d="M 0 400 L 0,276 150,278 300,250 450,242 600,256 750,264 900,225 1050,268 1200,258 1350,281 1500,225 1650,236 1800,226 1950,276 2100,254 2250,271 2400,274 L 2400,400 Z" fill="#D9D9F0" stroke="none"/>
<path d="M 0 400 L 0,187 150,202 300,200 450,215 600,214 750,209 900,215 1050,234 1200,189 1350,229 1500,223 1650,189 1800,227 1950,213 2100,198 2250,216 2400,184 L 2400,400 Z" fill="#2B2B3B" stroke="none"/>
<path d="M 0 400 L 0,184 141,175 282,145 423,153 564,171 705,187 847,155 988,175 1129,161 1270,155 1411,164 1552,173 1694,162 1835,154 1976,153 2117,154 2258,148 2400,159 L 2400,400 Z" fill="#6B6B8F" stroke="none"/>
<path d="M 0 400 L 0,138 160,121 320,133 480,123 640,112 800,113 960,129 1120,112 1280,121 1440,137 1600,118 1760,131 1920,122 2080,123 2240,111 2400,114 L 2400,400 Z" fill="#D9D9F0" stroke="none"/>
<path d="M 0 400 L 0,82 150,69 300,86 450,69 600,73 750,81 900,70 1050,72 1200,75 1350,76 1500,81 1650,76 1800,90 1950,82 2100,87 2250,71 2400,69 L 2400,400 Z" fill="#2B2B3B" stroke="none"/>
<polygon points="366,148 356,179 376,179" fill="#0b0b0b" />
<polygon points="62,139 52,171 72,171" fill="#0b0b0b" />
<polygon points="2007,160 2000,183 2014,183" fill="#0b0b0b" />
<polygon points="509,158 503,177 515,177" fill="#0b0b0b" />
<polygon points="692,154 685,177 699,177" fill="#0b0b0b" />
<polygon points="1722,152 1716,172 1728,172" fill="#0b0b0b" />
<polygon points="2266,166 2261,183 2271,183" fill="#0b0b0b" />
<polygon points="1671,144 1661,174 1681,174" fill="#0b0b0b" />
<polygon points="1738,147 1730,172 1746,172" fill="#0b0b0b" />
<polygon points="1438,154 1428,184 1448,184" fill="#0b0b0b" />
<polygon points="1058,147 1048,178 1068,178" fill="#0b0b0b" />
<polygon points="2300,153 2290,185 2310,185" fill="#0b0b0b" />
<polygon points="2311,166 2305,184 2317,184" fill="#0b0b0b" />
<polygon points="2360,153 2353,176 2367,176" fill="#0b0b0b" />
<polygon points="19,145 10,172 28,172" fill="#0b0b0b" />
<polygon points="1504,156 1495,184 1513,184" fill="#0b0b0b" />
<polygon points="2153,159 2147,178 2159,178" fill="#0b0b0b" />
<polygon points="1757,147 1749,171 1765,171" fill="#0b0b0b" />
<polygon points="716,148 706,180 726,180" fill="#0b0b0b" />
<polygon points="1246,169 1242,182 1250,182" fill="#0b0b0b" />
<polygon points="939,166 934,182 944,182" fill="#0b0b0b" />
<polygon points="2394,158 2390,170 2398,170" fill="#0b0b0b" />
<polygon points="958,162 952,181 964,181" fill="#0b0b0b" />
<polygon points="162,159 156,179 168,179" fill="#0b0b0b" />
<rect width="100%" height="100%" fill="#ffffff" opacity="0.06" />
</svg>