<svg xmlns="http://www.w3.org/2000/svg" width="1200" height="200" viewBox="0 0 2400 400">
<defs>
  <linearGradient id="bg11" x1="0%" y1="0%" x2="0%" y2="100%">
    <stop offset="0%" stop-color="#7A5A44"/>
    <stop offset="100%" stop-color="#EDE6D9"/>
  </linearGradient>
</defs>
<rect width="100%" height="100%" fill="url(#bg11)"/>
<path d="M 0 400 L 0,317 160,353 320,370 480,304 640,351 800,371 960,308 1120,316 1280,334 1440,332 1600,372 1760,318 1920,321 2080,351 2240,306 2400,308 L 2400,400 Z" fill="#7A5A44" stroke="none"/>
<path d="M 0 400 L 0,321 133,306 266,256 400,260 533,266 666,265 800,293 933,295 1066,312 1200,305 1333,271 1466,302 1600,278 1733,277 1866,314 2000,318 2133,303 2266,275 2400,292 L 2400,400 Z" fill="#9B8268" stroke="none"/>
<path d="M 0 400 L 0,263 160,225 320,219 480,212 640,212 800,247 960,259 1120,250 1280,219 1440,229 1600,234 1760,209 1920,222 2080,261 2240,255 2400,223 L 2400,400 Z" fill="#EDE6D9" stroke="none"/>
<path d="M 0 400 L 0,198 150,205 300,196 450,177 600,172 750,172 900,168 1050,175 1200,205 1350,168 1500,199 1650,192 1800,191 1950,194 2100,187 2250,173 2400,204 L 2400,400 Z" fill="#7A5A44" stroke="none"/>
<path d="M 0 400 L 0,143 160,138 320,146 480,145 640,131 800,145 960,128 1120,143 1280,115 1440,141 1600,127 1760,129 1920,141 2080,127 2240,125 2400,118 L 2400,400 Z" fill="#9B8268" stroke="none"/>
<path d="M 0 400 L 0,78 184,89 369,77 553,72 738,75 923,90 1107,75 1292,83 1476,87 1661,75 1846,72 2030,91 2215,72 2400,81 L 2400,400 Z" fill="#EDE6D9" stroke="none"/>
<polygon points="1850,151 1841,180 1859,180" fill="#0b0b0b" />
<polygon points="1326,161 1319,183 1333,183" fill="#0b0b0b" />
<polygon points="1523,163 1519,176 1527,176" fill="#0b0b0b" />
<polygon points="1201,141 1192,170 1210,170" fill="#0b0b0b" />
<polygon points="1072,150 1063,177 1081,177" fill="#0b0b0b" />
<polygon points="2010,157 2002,183 2018,183" fill="#0b0b0b" />
<polygon points="801,146 793,171 809,171" fill="#0b0b0b" />
<polygon points="1720,158 1711,187 1729,187" fill="#0b0b0b" />
<polygon points="1288,150 1280,175 1296,175" fill="#0b0b0b" />
<polygon points="543,156 534,184 552,184" fill="#0b0b0b" />
<polygon points="596,159 589,181 603,181" fill="#0b0b0b" />
<polygon points="1506,161 1501,178 1511,178" fill="#0b0b0b" />
<polygon points="2020,159 2013,181 2027,181" fill="#0b0b0b" />
<polygon points="876,152 869,173 883,173" fill="#0b0b0b" />
<polygon points="2197,150 2189,175 2205,175" fill="#0b0b0b" />
<polygon points="534,161 526,185 542,185" fill="#0b0b0b" />
<polygon points="1512,164 1508,178 1516,178" fill="#0b0b0b" />
<polygon points="664,151 656,177 672,177" fill="#0b0b0b" />
<polygon points="1873,151 1864,178 1882,178" fill="#0b0b0b" />
<polygon points="608,167 604,180 612,180" fill="#0b0b0b" />
<polygon points="149,162 142,185 156,185" fill="#0b0b0b" />
<rect width="100%" height="100%" fill="#ffffff" opacity="0.06" />
</svg>