<svg xmlns="http://www.w3.org/2000/svg" width="2400" height="400" viewBox="0 0 2400 400">
<defs>
  <linearGradient id="bg15" x1="0%" y1="0%" x2="0%" y2="100%">
    <stop offset="0%" stop-color="#4B3B2B"/>
    <stop offset="100%" stop-color="#D4C8BD"/>
  </linearGradient>
  <filter id="noise15">
    <feTurbulence type="fractalNoise" baseFrequency="0.9" numOctaves="2" stitchTiles="stitch" result="turb"/>
    <feColorMatrix in="turb" type="saturate" values="0" result="mono"/>
    <feComponentTransfer in="mono" result="alpha">
      <feFuncA type="table" tableValues="0 0.08"/>
    </feComponentTransfer>
    <feBlend in="SourceGraphic" in2="mono" mode="overlay"/>
  </filter>
</defs>
<rect width="100%" height="100%" fill="url(#bg15)"/>
<path d="M 0 400 L 0,318 184,364 369,371 553,377 738,362 923,361 1107,305 1292,308 1476,336 1661,325 1846,320 2030,356 2215,349 2400,379 L 2400,400 Z" fill="#4B3B2B" stroke="none"/>
<path d="M 0 400 L 0,297 218,268 436,316 654,273 872,315 1090,286 1309,319 1527,311 1745,310 1963,315 2181,306 2400,258 L 2400,400 Z" fill="#7B6755" stroke="none"/>
<path d="M 0 400 L 0,255 171,236 342,234 514,263 685,214 857,237 1028,242 1200,215 1371,252 1542,216 1714,238 1885,219 2057,223 2228,219 2400,214 L 2400,400 Z" fill="#D4C8BD" stroke="none"/>
<path d="M 0 400 L 0,165 133,175 266,202 400,165 533,186 666,167 800,184 933,189 1066,173 1200,205 1333,189 1466,204 1600,192 1733,193 1866,202 2000,188 2133,199 2266,193 2400,181 L 2400,400 Z" fill="#4B3B2B" stroke="none"/>
<path d="M 0 400 L 0,146 184,142 369,138 553,147 738,114 923,132 1107,133 1292,125 1476,115 1661,132 1846,134 2030,121 2215,117 2400,121 L 2400,400 Z" fill="#7B6755" stroke="none"/>
<path d="M 0 400 L 0,72 133,70 266,88 400,85 533,75 666,78 800,79 933,89 1066,70 1200,73 1333,85 1466,71 1600,88 1733,74 1866,81 2000,76 2133,70 2266,73 2400,88 L 2400,400 Z" fill="#D4C8BD" stroke="none"/>
<polygon points="1358,159 1350,184 1366,184" fill="#0b0b0b" />
<polygon points="1472,143 1464,169 1480,169" fill="#0b0b0b" />
<polygon points="1672,175 1668,189 1676,189" fill="#0b0b0b" />
<polygon points="936,170 930,189 942,189" fill="#0b0b0b" />
<polygon points="935,159 925,189 945,189" fill="#0b0b0b" />
<polygon points="1907,155 1898,183 1916,183" fill="#0b0b0b" />
<polygon points="1394,147 1384,179 1404,179" fill="#0b0b0b" />
<polygon points="1451,138 1441,170 1461,170" fill="#0b0b0b" />
<polygon points="692,162 683,189 701,189" fill="#0b0b0b" />
<polygon points="981,160 973,184 989,184" fill="#0b0b0b" />
<polygon points="284,148 275,176 293,176" fill="#0b0b0b" />
<polygon points="368,147 360,172 376,172" fill="#0b0b0b" />
<polygon points="359,142 349,172 369,172" fill="#0b0b0b" />
<polygon points="2234,143 2224,173 2244,173" fill="#0b0b0b" />
<polygon points="1937,167 1933,180 1941,180" fill="#0b0b0b" />
<polygon points="1089,165 1084,180 1094,180" fill="#0b0b0b" />
<polygon points="272,147 262,177 282,177" fill="#0b0b0b" />
<polygon points="176,160 169,183 183,183" fill="#0b0b0b" />
<polygon points="1273,153 1267,173 1279,173" fill="#0b0b0b" />
<polygon points="284,147 275,176 293,176" fill="#0b0b0b" />
<polygon points="831,152 825,172 837,172" fill="#0b0b0b" />
<polygon points="719,175 715,189 723,189" fill="#0b0b0b" />
<polygon points="1297,149 1288,176 1306,176" fill="#0b0b0b" />
<circle cx="1975" cy="154" r="35" fill="#6f5f4f" opacity="0.12"/>
<rect width="100%" height="100%" fill="#000000" opacity="0.0" filter="url(#noise15)" />
</svg>