<svg xmlns="http://www.w3.org/2000/svg" width="1200" height="200" viewBox="0 0 2400 400">
<defs>
  <linearGradient id="bg16" x1="0%" y1="0%" x2="0%" y2="100%">
    <stop offset="0%" stop-color="#3B3B3B"/>
    <stop offset="100%" stop-color="#CFCFCF"/>
  </linearGradient>
  <filter id="noise16">
    <feTurbulence type="fractalNoise" baseFrequency="0.9" numOctaves="2" stitchTiles="stitch" result="turb"/>
    <feColorMatrix in="turb" type="saturate" values="0" result="mono"/>
    <feComponentTransfer in="mono" result="alpha">
      <feFuncA type="table" tableValues="0 0.08"/>
    </feComponentTransfer>
    <feBlend in="SourceGraphic" in2="mono" mode="overlay"/>
  </filter>
</defs>
<rect width="100%" height="100%" fill="url(#bg16)"/>
<path d="M 0 400 L 0,355 218,363 436,359 654,320 872,326 1090,374 1309,359 1527,377 1745,356 1963,350 2181,323 2400,334 L 2400,400 Z" fill="#3B3B3B" stroke="none"/>
<path d="M 0 400 L 0,245 160,268 320,296 480,247 640,297 800,255 960,261 1120,279 1280,278 1440,290 1600,244 1760,284 1920,305 2080,292 2240,300 2400,289 L 2400,400 Z" fill="#6B6B6B" stroke="none"/>
<path d="M 0 400 L 0,213 200,189 400,199 600,194 800,200 1000,230 1200,235 1400,219 1600,190 1800,209 2000,214 2200,192 2400,219 L 2400,400 Z" fill="#CFCFCF" stroke="none"/>
<path d="M 0 400 L 0,126 141,162 282,133 423,142 564,157 705,159 847,156 988,163 1129,159 1270,160 1411,158 1552,152 1694,128 1835,156 1976,136 2117,146 2258,146 2400,158 L 2400,400 Z" fill="#3B3B3B" stroke="none"/>
<path d="M 0 400 L 0,81 171,68 342,68 514,81 685,83 857,81 1028,81 1200,73 1371,87 1542,74 1714,70 1885,80 2057,88 2228,91 2400,84 L 2400,400 Z" fill="#6B6B6B" stroke="none"/>
<polygon points="1530,172 1525,188 1535,188" fill="#0b0b0b" />
<polygon points="1420,163 1414,183 1426,183" fill="#0b0b0b" />
<polygon points="327,157 320,178 334,178" fill="#0b0b0b" />
<polygon points="382,162 377,177 387,177" fill="#0b0b0b" />
<polygon points="1380,160 1375,175 1385,175" fill="#0b0b0b" />
<polygon points="996,143 986,173 1006,173" fill="#0b0b0b" />
<polygon points="1126,152 1121,169 1131,169" fill="#0b0b0b" />
<polygon points="2263,157 2256,180 2270,180" fill="#0b0b0b" />
<polygon points="1723,164 1715,188 1731,188" fill="#0b0b0b" />
<polygon points="70,154 60,185 80,185" fill="#0b0b0b" />
<polygon points="2334,152 2325,180 2343,180" fill="#0b0b0b" />
<polygon points="159,173 155,187 163,187" fill="#0b0b0b" />
<polygon points="2160,151 2153,172 2167,172" fill="#0b0b0b" />
<polygon points="2291,153 2281,183 2301,183" fill="#0b0b0b" />
<polygon points="1436,161 1428,186 1444,186" fill="#0b0b0b" />
<polygon points="2087,162 2083,176 2091,176" fill="#0b0b0b" />
<polygon points="1041,141 1032,168 1050,168" fill="#0b0b0b" />
<polygon points="1549,162 1541,187 1557,187" fill="#0b0b0b" />
<polygon points="1749,158 1740,186 1758,186" fill="#0b0b0b" />
<polygon points="896,158 890,177 902,177" fill="#0b0b0b" />
<polygon points="270,154 261,182 279,182" fill="#0b0b0b" />
<polygon points="1779,169 1774,184 1784,184" fill="#0b0b0b" />
<polygon points="1041,155 1037,168 1045,168" fill="#0b0b0b" />
<rect width="100%" height="100%" fill="#000000" opacity="0.0" filter="url(#noise16)" />
</svg>