<svg xmlns="http://www.w3.org/2000/svg" viewBox="0 0 2400 400" width="1200" height="200" shape-rendering="geometricPrecision">
  <!-- Dawn Ridges — Warm | Group A | dawn, warm, flat, geometric -->
  <rect width="1200" height="200" fill="#EDE6D9"/>
  <circle cx="1929" cy="58" r="46" fill="#FFFFFF" opacity="0.74"/>
  <polygon points="0,400 0,353 141,347 282,319 423,374 564,312 705,331 847,326 988,349 1129,368 1270,335 1411,340 1552,361 1694,335 1835,331 1976,313 2117,343 2258,375 2400,353 2400,400" fill="#EDE6D9"/>
  <polygon points="0,400 0,297 141,324 282,288 423,303 564,306 705,289 847,274 988,308 1129,286 1270,271 1411,270 1552,293 1694,282 1835,269 1976,324 2117,298 2258,300 2400,305 2400,400" fill="#C4A875"/>
  <polygon points="0,400 0,235 141,267 282,248 423,272 564,267 705,248 847,268 988,243 1129,226 1270,266 1411,227 1552,241 1694,267 1835,254 1976,265 2117,235 2258,267 2400,248 2400,400" fill="#9B8268"/>
  <polygon points="0,400 0,208 141,201 282,217 423,213 564,210 705,186 847,197 988,219 1129,187 1270,185 1411,188 1552,194 1694,223 1835,188 1976,196 2117,212 2258,195 2400,196 2400,400" fill="#7A5A44"/>
  <polygon points="0,400 0,156 141,167 282,140 423,148 564,157 705,171 847,162 988,150 1129,150 1270,170 1411,155 1552,172 1694,156 1835,151 1976,170 2117,164 2258,172 2400,151 2400,400" fill="#3A2820"/>
  <polygon points="0,400 0,112 141,102 282,109 423,114 564,115 705,115 847,106 988,99 1129,112 1270,99 1411,108 1552,117 1694,116 1835,104 1976,113 2117,113 2258,99 2400,108 2400,400" fill="#EDE6D9"/>
  <polygon points="0,400 0,67 141,62 282,71 423,67 564,61 705,64 847,57 988,66 1129,67 1270,68 1411,59 1552,69 1694,62 1835,62 1976,60 2117,59 2258,63 2400,63 2400,400" fill="#C4A875"/>
  <g id="trees"><polygon points="2162,21 2149,60 2175,60" fill="#1A120E"/><polygon points="1444,30 1434,62 1454,62" fill="#1A120E"/><polygon points="2003,42 1997,60 2009,60" fill="#1A120E"/><polygon points="658,48 653,63 663,63" fill="#1A120E"/><polygon points="1850,43 1844,62 1856,62" fill="#1A120E"/><polygon points="1210,33 1199,68 1221,68" fill="#1A120E"/><polygon points="715,32 705,64 725,64" fill="#1A120E"/><polygon points="987,32 976,66 998,66" fill="#1A120E"/><polygon points="1057,30 1045,67 1069,67" fill="#1A120E"/><polygon points="1765,22 1752,62 1778,62" fill="#1A120E"/><polygon points="1264,50 1258,68 1270,68" fill="#1A120E"/><polygon points="1385,36 1377,61 1393,61" fill="#1A120E"/><polygon points="2154,29 2144,60 2164,60" fill="#1A120E"/><polygon points="134,32 124,63 144,63" fill="#1A120E"/><polygon points="1814,45 1809,62 1819,62" fill="#1A120E"/><polygon points="1609,30 1597,66 1621,66" fill="#1A120E"/><polygon points="1628,50 1623,66 1633,66" fill="#1A120E"/><polygon points="121,40 114,63 128,63" fill="#1A120E"/><polygon points="2336,26 2324,63 2348,63" fill="#1A120E"/><polygon points="1054,48 1048,67 1060,67" fill="#1A120E"/><polygon points="2273,44 2267,63 2279,63" fill="#1A120E"/><polygon points="337,39 327,69 347,69" fill="#1A120E"/><polygon points="2390,39 2382,63 2398,63" fill="#1A120E"/><polygon points="403,32 391,68 415,68" fill="#1A120E"/><polygon points="1901,21 1888,61 1914,61" fill="#1A120E"/><polygon points="647,34 638,63 656,63" fill="#1A120E"/><polygon points="2177,46 2172,61 2182,61" fill="#1A120E"/><polygon points="1909,22 1896,61 1922,61" fill="#1A120E"/><polygon points="1285,28 1272,67 1298,67" fill="#1A120E"/><polygon points="311,31 298,70 324,70" fill="#1A120E"/><polygon points="1588,29 1576,67 1600,67" fill="#1A120E"/><polygon points="1795,44 1789,62 1801,62" fill="#1A120E"/><polygon points="1205,51 1200,68 1210,68" fill="#1A120E"/></g>
</svg>