<svg xmlns="http://www.w3.org/2000/svg" viewBox="0 0 2400 400" width="1200" height="200" shape-rendering="geometricPrecision">
  <!-- Noon Plains — Ochre | Group A | noon, ochre, clean, minimal -->
  <rect width="1200" height="200" fill="#F0E8D2"/>
  <circle cx="459" cy="36" r="40" fill="#FFFFFF" opacity="0.74"/>
  <polygon points="0,400 0,344 141,328 282,353 423,327 564,352 705,320 847,375 988,353 1129,336 1270,356 1411,327 1552,338 1694,315 1835,323 1976,357 2117,314 2258,344 2400,340 2400,400" fill="#F0E8D2"/>
  <polygon points="0,400 0,238 141,239 282,229 423,253 564,260 705,267 847,234 988,233 1129,247 1270,234 1411,247 1552,256 1694,244 1835,257 1976,229 2117,243 2258,271 2400,259 2400,400" fill="#D4A860"/>
  <polygon points="0,400 0,145 141,142 282,173 423,153 564,167 705,171 847,146 988,171 1129,149 1270,172 1411,162 1552,149 1694,172 1835,171 1976,163 2117,157 2258,156 2400,170 2400,400" fill="#A07040"/>
  <polygon points="0,400 0,57 141,56 282,62 423,70 564,64 705,56 847,65 988,61 1129,71 1270,62 1411,56 1552,68 1694,61 1835,70 1976,69 2117,65 2258,64 2400,61 2400,400" fill="#6B4020"/>
  <g id="trees"><polygon points="144,32 136,56 152,56" fill="#130903"/><polygon points="1165,50 1159,68 1171,68" fill="#130903"/><polygon points="1039,35 1030,64 1048,64" fill="#130903"/><polygon points="1542,49 1536,67 1548,67" fill="#130903"/><polygon points="1518,44 1511,65 1525,65" fill="#130903"/><polygon points="774,38 767,61 781,61" fill="#130903"/><polygon points="1896,54 1891,70 1901,70" fill="#130903"/><polygon points="77,38 71,56 83,56" fill="#130903"/><polygon points="820,25 808,63 832,63" fill="#130903"/><polygon points="961,27 950,62 972,62" fill="#130903"/><polygon points="562,33 552,64 572,64" fill="#130903"/><polygon points="410,45 402,69 418,69" fill="#130903"/><polygon points="2228,45 2222,64 2234,64" fill="#130903"/><polygon points="943,26 931,62 955,62" fill="#130903"/><polygon points="1796,44 1788,68 1804,68" fill="#130903"/><polygon points="1081,41 1073,67 1089,67" fill="#130903"/><polygon points="1268,27 1257,62 1279,62" fill="#130903"/><polygon points="1949,46 1941,70 1957,70" fill="#130903"/><polygon points="314,47 309,64 319,64" fill="#130903"/><polygon points="1684,36 1676,61 1692,61" fill="#130903"/><polygon points="286,23 273,62 299,62" fill="#130903"/><polygon points="591,35 582,62 600,62" fill="#130903"/><polygon points="1824,44 1816,69 1832,69" fill="#130903"/><polygon points="82,34 75,56 89,56" fill="#130903"/><polygon points="333,37 324,65 342,65" fill="#130903"/></g>
</svg>