<svg xmlns="http://www.w3.org/2000/svg" viewBox="0 0 2400 400" width="1200" height="200" shape-rendering="geometricPrecision">
  <!-- Dusk Ridges — Amber | Group A | dusk, amber, crisp, flat -->
  <rect width="1200" height="200" fill="#D8C8BC"/>
  <polygon points="0,400 0,338 141,338 282,331 423,373 564,342 705,337 847,317 988,368 1129,354 1270,312 1411,331 1552,330 1694,331 1835,368 1976,363 2117,334 2258,332 2400,316 2400,400" fill="#D8C8BC"/>
  <polygon points="0,400 0,232 141,260 282,268 423,229 564,249 705,268 847,269 988,263 1129,234 1270,264 1411,268 1552,247 1694,258 1835,230 1976,269 2117,259 2258,240 2400,262 2400,400" fill="#B09080"/>
  <polygon points="0,400 0,165 141,169 282,158 423,168 564,157 705,171 847,143 988,143 1129,170 1270,171 1411,148 1552,167 1694,153 1835,162 1976,150 2117,168 2258,143 2400,153 2400,400" fill="#846050"/>
  <polygon points="0,400 0,61 141,62 282,69 423,56 564,57 705,66 847,57 988,71 1129,63 1270,70 1411,70 1552,67 1694,71 1835,57 1976,69 2117,68 2258,71 2400,67 2400,400" fill="#5A3828"/>
  <g id="trees"><polygon points="2113,37 2103,68 2123,68" fill="#120903"/><polygon points="2049,52 2044,69 2054,69" fill="#120903"/><polygon points="964,31 952,69 976,69" fill="#120903"/><polygon points="1845,24 1834,58 1856,58" fill="#120903"/><polygon points="65,39 58,62 72,62" fill="#120903"/><polygon points="659,28 648,63 670,63" fill="#120903"/><polygon points="1283,45 1275,70 1291,70" fill="#120903"/><polygon points="783,40 776,61 790,61" fill="#120903"/><polygon points="1074,43 1067,66 1081,66" fill="#120903"/><polygon points="2160,49 2154,69 2166,69" fill="#120903"/><polygon points="1385,31 1372,70 1398,70" fill="#120903"/><polygon points="1369,47 1362,70 1376,70" fill="#120903"/><polygon points="1079,50 1074,66 1084,66" fill="#120903"/><polygon points="2105,32 2093,68 2117,68" fill="#120903"/><polygon points="1882,25 1870,61 1894,61" fill="#120903"/><polygon points="725,27 713,65 737,65" fill="#120903"/><polygon points="1929,28 1917,65 1941,65" fill="#120903"/><polygon points="2174,29 2161,69 2187,69" fill="#120903"/><polygon points="1735,27 1722,67 1748,67" fill="#120903"/><polygon points="1375,42 1366,70 1384,70" fill="#120903"/><polygon points="1965,43 1957,68 1973,68" fill="#120903"/><polygon points="793,43 787,61 799,61" fill="#120903"/><polygon points="1812,29 1802,59 1822,59" fill="#120903"/></g>
</svg>