<svg width="2400" height="400" viewBox="0 0 2400 400" xmlns="http://www.w3.org/2000/svg">
<rect width="2400" height="400" fill="#C9D6FF"/>
<polygon points="0,300 400,220 900,260 1500,200 2100,260 2400,240 2400,400 0,400" fill="#4A5D73"/>
<polygon points="0,340 600,280 1200,320 1800,260 2400,300 2400,400 0,400" fill="#2E3A59"/>
<polygon points="0,370 900,330 1800,310 2400,350 2400,400 0,400" fill="#1C2230"/>
</svg>
  <rect width="2400" height="400" fill="#D0D8E4"/>
  <g id="stars4"><circle cx="2168" cy="72" r="2" fill="#ACD3FF" opacity="0.93"/><circle cx="2214" cy="37" r="1" fill="#ACD3FF" opacity="0.98"/><circle cx="440" cy="149" r="1" fill="#ACD3FF" opacity="0.60"/><circle cx="2143" cy="34" r="1" fill="#ACD3FF" opacity="0.95"/><circle cx="776" cy="90" r="2" fill="#ACD3FF" opacity="0.83"/><circle cx="1473" cy="63" r="1" fill="#ACD3FF" opacity="0.56"/><circle cx="1062" cy="77" r="1" fill="#ACD3FF" opacity="0.57"/><circle cx="705" cy="115" r="1" fill="#ACD3FF" opacity="0.88"/><circle cx="2353" cy="111" r="2" fill="#ACD3FF" opacity="0.47"/><circle cx="614" cy="72" r="1" fill="#ACD3FF" opacity="0.77"/><circle cx="1497" cy="151" r="1" fill="#ACD3FF" opacity="0.53"/><circle cx="1947" cy="175" r="1" fill="#ACD3FF" opacity="0.53"/><circle cx="2157" cy="98" r="1" fill="#ACD3FF" opacity="0.64"/><circle cx="1962" cy="19" r="1" fill="#ACD3FF" opacity="0.51"/><circle cx="1798" cy="39" r="1" fill="#ACD3FF" opacity="0.67"/><circle cx="1887" cy="39" r="1" fill="#ACD3FF" opacity="0.63"/><circle cx="303" cy="132" r="2" fill="#ACD3FF" opacity="0.72"/><circle cx="1920" cy="43" r="1" fill="#ACD3FF" opacity="0.77"/><circle cx="2148" cy="125" r="1" fill="#ACD3FF" opacity="0.66"/><circle cx="1283" cy="94" r="1" fill="#ACD3FF" opacity="0.68"/><circle cx="984" cy="89" r="1" fill="#ACD3FF" opacity="0.71"/><circle cx="578" cy="89" r="2" fill="#ACD3FF" opacity="0.61"/><circle cx="1435" cy="75" r="1" fill="#ACD3FF" opacity="0.78"/><circle cx="1694" cy="172" r="1" fill="#ACD3FF" opacity="1.00"/><circle cx="735" cy="78" r="2" fill="#ACD3FF" opacity="0.44"/><circle cx="1703" cy="93" r="1" fill="#ACD3FF" opacity="0.71"/><circle cx="2196" cy="139" r="1" fill="#ACD3FF" opacity="0.73"/><circle cx="141" cy="158" r="1" fill="#ACD3FF" opacity="0.56"/><circle cx="272" cy="79" r="1" fill="#ACD3FF" opacity="0.86"/><circle cx="1868" cy="35" r="1" fill="#ACD3FF" opacity="0.98"/><circle cx="464" cy="46" r="1" fill="#ACD3FF" opacity="0.43"/><circle cx="490" cy="1" r="1" fill="#ACD3FF" opacity="0.82"/><circle cx="2026" cy="54" r="1" fill="#ACD3FF" opacity="0.88"/><circle cx="832" cy="35" r="1" fill="#ACD3FF" opacity="0.69"/><circle cx="2141" cy="171" r="1" fill="#ACD3FF" opacity="0.52"/><circle cx="1394" cy="76" r="1" fill="#ACD3FF" opacity="0.80"/><circle cx="931" cy="169" r="1" fill="#ACD3FF" opacity="0.72"/><circle cx="2067" cy="160" r="2" fill="#ACD3FF" opacity="0.80"/><circle cx="559" cy="19" r="1" fill="#ACD3FF" opacity="0.91"/><circle cx="314" cy="73" r="1" fill="#ACD3FF" opacity="0.98"/><circle cx="1757" cy="116" r="1" fill="#ACD3FF" opacity="0.61"/><circle cx="1388" cy="139" r="1" fill="#ACD3FF" opacity="0.85"/><circle cx="499" cy="126" r="1" fill="#ACD3FF" opacity="0.53"/><circle cx="1231" cy="67" r="1" fill="#ACD3FF" opacity="0.78"/><circle cx="1032" cy="141" r="1" fill="#ACD3FF" opacity="0.56"/><circle cx="974" cy="14" r="1" fill="#ACD3FF" opacity="0.91"/><circle cx="1683" cy="119" r="1" fill="#ACD3FF" opacity="0.69"/><circle cx="1115" cy="10" r="1" fill="#ACD3FF" opacity="0.62"/><circle cx="1278" cy="94" r="2" fill="#ACD3FF" opacity="0.54"/><circle cx="647" cy="112" r="1" fill="#ACD3FF" opacity="0.86"/><circle cx="236" cy="42" r="2" fill="#ACD3FF" opacity="0.71"/><circle cx="106" cy="91" r="1" fill="#ACD3FF" opacity="0.87"/><circle cx="1973" cy="27" r="1" fill="#ACD3FF" opacity="0.87"/><circle cx="1545" cy="157" r="1" fill="#ACD3FF" opacity="0.57"/><circle cx="2062" cy="157" r="1" fill="#ACD3FF" opacity="0.49"/><circle cx="1039" cy="38" r="2" fill="#ACD3FF" opacity="0.79"/><circle cx="2198" cy="47" r="1" fill="#ACD3FF" opacity="0.68"/><circle cx="1835" cy="59" r="1" fill="#ACD3FF" opacity="0.61"/><circle cx="234" cy="4" r="1" fill="#ACD3FF" opacity="0.96"/><circle cx="1141" cy="19" r="1" fill="#ACD3FF" opacity="0.73"/><circle cx="2017" cy="137" r="1" fill="#ACD3FF" opacity="0.83"/><circle cx="1995" cy="143" r="2" fill="#ACD3FF" opacity="0.51"/><circle cx="1125" cy="92" r="1" fill="#ACD3FF" opacity="0.67"/><circle cx="551" cy="52" r="1" fill="#ACD3FF" opacity="0.74"/><circle cx="2271" cy="176" r="1" fill="#ACD3FF" opacity="0.77"/><circle cx="2057" cy="36" r="1" fill="#ACD3FF" opacity="0.79"/></g>
  <polygon points="0,400 0,363 141,324 282,369 423,327 564,367 705,349 847,311 988,355 1129,326 1270,332 1411,373 1552,329 1694,336 1835,347 1976,326 2117,330 2258,360 2400,369 2400,400" fill="#D0D8E4"/>
  <polygon points="0,400 0,309 141,267 282,278 423,295 564,288 705,304 847,296 988,266 1129,269 1270,284 1411,279 1552,271 1694,262 1835,284 1976,289 2117,286 2258,260 2400,311 2400,400" fill="#8090A8"/>
  <polygon points="0,400 0,250 141,216 282,247 423,225 564,216 705,250 847,222 988,250 1129,235 1270,238 1411,228 1552,234 1694,215 1835,214 1976,237 2117,238 2258,220 2400,245 2400,400" fill="#485870"/>
  <polygon points="0,400 0,181 141,183 282,166 423,167 564,159 705,165 847,170 988,158 1129,160 1270,169 1411,175 1552,178 1694,184 1835,186 1976,184 2117,166 2258,188 2400,164 2400,400" fill="#283040"/>
  <polygon points="0,400 0,112 141,123 282,121 423,127 564,127 705,129 847,118 988,128 1129,109 1270,124 1411,128 1552,126 1694,125 1835,124 1976,128 2117,126 2258,110 2400,114 2400,400" fill="#101828"/>
  <polygon points="0,400 0,64 141,59 282,69 423,62 564,60 705,69 847,61 988,66 1129,66 1270,66 1411,60 1552,56 1694,68 1835,61 1976,71 2117,62 2258,60 2400,64 2400,400" fill="#D0D8E4"/>
  <g id="trees"><polygon points="2256,42 2250,60 2262,60" fill="#070B12"/><polygon points="204,26 192,63 216,63" fill="#070B12"/><polygon points="0,31 -11,64 11,64" fill="#070B12"/><polygon points="1719,52 1714,67 1724,67" fill="#070B12"/><polygon points="804,23 791,63 817,63" fill="#070B12"/><polygon points="985,36 975,66 995,66" fill="#070B12"/><polygon points="1227,28 1215,66 1239,66" fill="#070B12"/><polygon points="1109,34 1099,66 1119,66" fill="#070B12"/><polygon points="11,38 3,64 19,64" fill="#070B12"/><polygon points="5,48 0,64 10,64" fill="#070B12"/><polygon points="35,32 25,63 45,63" fill="#070B12"/><polygon points="1257,36 1247,66 1267,66" fill="#070B12"/><polygon points="664,45 657,66 671,66" fill="#070B12"/><polygon points="2246,38 2239,60 2253,60" fill="#070B12"/><polygon points="353,42 345,66 361,66" fill="#070B12"/><polygon points="1524,27 1514,57 1534,57" fill="#070B12"/><polygon points="401,35 392,63 410,63" fill="#070B12"/><polygon points="784,43 777,64 791,64" fill="#070B12"/><polygon points="268,49 262,68 274,68" fill="#070B12"/><polygon points="2397,41 2390,64 2404,64" fill="#070B12"/><polygon points="1017,27 1004,66 1030,66" fill="#070B12"/><polygon points="1601,20 1588,60 1614,60" fill="#070B12"/><polygon points="1847,42 1841,62 1853,62" fill="#070B12"/><polygon points="1730,50 1725,66 1735,66" fill="#070B12"/><polygon points="1657,25 1644,65 1670,65" fill="#070B12"/><polygon points="22,38 14,63 30,63" fill="#070B12"/><polygon points="249,47 243,67 255,67" fill="#070B12"/><polygon points="1962,46 1954,70 1970,70" fill="#070B12"/><polygon points="1541,21 1530,56 1552,56" fill="#070B12"/><polygon points="1986,54 1981,70 1991,70" fill="#070B12"/><polygon points="1491,31 1482,58 1500,58" fill="#070B12"/><polygon points="1853,34 1844,62 1862,62" fill="#070B12"/><polygon points="2269,43 2264,60 2274,60" fill="#070B12"/><polygon points="2221,44 2216,60 2226,60" fill="#070B12"/><polygon points="896,38 888,63 904,63" fill="#070B12"/><polygon points="1458,29 1449,58 1467,58" fill="#070B12"/><polygon points="1043,44 1036,66 1050,66" fill="#070B12"/><polygon points="1463,37 1456,58 1470,58" fill="#070B12"/><polygon points="996,46 990,66 1002,66" fill="#070B12"/><polygon points="806,31 796,63 816,63" fill="#070B12"/><polygon points="934,41 927,64 941,64" fill="#070B12"/><polygon points="2118,46 2113,62 2123,62" fill="#070B12"/><polygon points="1581,41 1576,58 1586,58" fill="#070B12"/><polygon points="1877,48 1872,64 1882,64" fill="#070B12"/></g>
</svg>