<svg xmlns="http://www.w3.org/2000/svg" viewBox="0 0 2400 400" width="1200" height="200" shape-rendering="geometricPrecision">
  <!-- Brushed Dawn — Soft | Group B | dawn, soft, painterly, warm -->
  <defs>
    <linearGradient id="bg5" x1="0" y1="0" x2="0" y2="1"><stop offset="0%" stop-color="#FFFFF6"/><stop offset="55%" stop-color="#A07050"/><stop offset="100%" stop-color="#291406"/></linearGradient>
    <filter id="bl5" x="-3%" y="-3%" width="106%" height="106%"><feGaussianBlur stdDeviation="2.4"/></filter>
    <radialGradient id="vg5" cx="50%" cy="50%" r="74%"><stop offset="0%" stop-color="transparent"/><stop offset="100%" stop-color="#1D0E04" stop-opacity="0.30"/></radialGradient>
  </defs>
  <rect width="1200" height="200" fill="url(#bg5)"/>
  <g filter="url(#bl5)"><polygon points="0,400 0,317 141,342 282,375 423,376 564,334 705,317 847,316 988,320 1129,320 1270,348 1411,373 1552,353 1694,355 1835,328 1976,323 2117,317 2258,338 2400,360 2400,400" fill="#F4E8D8" opacity="0.93"/><polygon points="0,400 0,325 141,275 282,302 423,271 564,298 705,291 847,302 988,311 1129,281 1270,316 1411,283 1552,302 1694,294 1835,322 1976,284 2117,325 2258,275 2400,320 2400,400" fill="#D4A878" opacity="0.93"/><polygon points="0,400 0,263 141,245 282,257 423,241 564,227 705,227 847,245 988,254 1129,234 1270,264 1411,263 1552,258 1694,268 1835,225 1976,273 2117,247 2258,240 2400,229 2400,400" fill="#A07050" opacity="0.93"/><polygon points="0,400 0,193 141,214 282,211 423,210 564,191 705,198 847,184 988,220 1129,224 1270,207 1411,220 1552,202 1694,220 1835,203 1976,194 2117,187 2258,210 2400,208 2400,400" fill="#704030" opacity="0.93"/><polygon points="0,400 0,164 141,152 282,144 423,165 564,165 705,158 847,157 988,159 1129,150 1270,147 1411,152 1552,154 1694,152 1835,159 1976,173 2117,144 2258,155 2400,141 2400,400" fill="#301808" opacity="0.93"/><polygon points="0,400 0,103 141,109 282,101 423,105 564,98 705,103 847,106 988,112 1129,114 1270,119 1411,116 1552,107 1694,110 1835,102 1976,120 2117,112 2258,120 2400,112 2400,400" fill="#F4E8D8" opacity="0.93"/><polygon points="0,400 0,56 141,59 282,68 423,61 564,62 705,69 847,62 988,64 1129,63 1270,61 1411,68 1552,70 1694,68 1835,58 1976,71 2117,58 2258,59 2400,67 2400,400" fill="#D4A878" opacity="0.93"/></g>
  <g filter="url(#bl5)" opacity="0.88"><polygon points="335,33 324,66 346,66" fill="#160B03"/><polygon points="1229,44 1224,61 1234,61" fill="#160B03"/><polygon points="344,50 339,65 349,65" fill="#160B03"/><polygon points="658,38 649,67 667,67" fill="#160B03"/><polygon points="211,36 202,64 220,64" fill="#160B03"/><polygon points="254,33 243,66 265,66" fill="#160B03"/><polygon points="994,48 989,64 999,64" fill="#160B03"/><polygon points="673,31 661,67 685,67" fill="#160B03"/><polygon points="776,29 764,66 788,66" fill="#160B03"/><polygon points="2322,25 2310,63 2334,63" fill="#160B03"/><polygon points="2337,41 2330,64 2344,64" fill="#160B03"/><polygon points="739,43 731,67 747,67" fill="#160B03"/><polygon points="1671,40 1662,68 1680,68" fill="#160B03"/><polygon points="2,27 -7,56 11,56" fill="#160B03"/><polygon points="1918,43 1911,65 1925,65" fill="#160B03"/><polygon points="1918,37 1909,65 1927,65" fill="#160B03"/><polygon points="137,40 131,59 143,59" fill="#160B03"/><polygon points="2099,27 2088,60 2110,60" fill="#160B03"/><polygon points="499,43 493,62 505,62" fill="#160B03"/><polygon points="1211,30 1201,62 1221,62" fill="#160B03"/><polygon points="2034,26 2021,66 2047,66" fill="#160B03"/><polygon points="368,32 358,64 378,64" fill="#160B03"/><polygon points="2345,40 2337,64 2353,64" fill="#160B03"/><polygon points="1573,36 1562,70 1584,70" fill="#160B03"/><polygon points="2263,29 2253,60 2273,60" fill="#160B03"/><polygon points="344,50 339,65 349,65" fill="#160B03"/><polygon points="2345,34 2335,64 2355,64" fill="#160B03"/><polygon points="218,49 213,64 223,64" fill="#160B03"/><polygon points="1176,31 1166,62 1186,62" fill="#160B03"/><polygon points="2211,38 2204,59 2218,59" fill="#160B03"/><polygon points="2256,34 2248,59 2264,59" fill="#160B03"/><polygon points="972,35 963,64 981,64" fill="#160B03"/><polygon points="431,31 421,61 441,61" fill="#160B03"/><polygon points="1917,32 1906,65 1928,65" fill="#160B03"/><polygon points="624,47 618,65 630,65" fill="#160B03"/><polygon points="2083,29 2073,61 2093,61" fill="#160B03"/><polygon points="2281,37 2273,61 2289,61" fill="#160B03"/><polygon points="2350,34 2340,65 2360,65" fill="#160B03"/><polygon points="331,37 322,66 340,66" fill="#160B03"/><polygon points="464,42 458,62 470,62" fill="#160B03"/><polygon points="1344,47 1339,64 1349,64" fill="#160B03"/><polygon points="1576,46 1568,70 1584,70" fill="#160B03"/><polygon points="792,31 781,65 803,65" fill="#160B03"/><polygon points="1263,34 1254,61 1272,61" fill="#160B03"/><polygon points="647,29 635,66 659,66" fill="#160B03"/></g>
  <rect width="1200" height="200" fill="url(#vg5)"/>
</svg>