<svg xmlns="http://www.w3.org/2000/svg" viewBox="0 0 2400 400" width="1200" height="200" shape-rendering="geometricPrecision">
  <!-- Bloom Noon — Hazy | Group B | noon, bloom, hazy, brushy -->
  <defs>
    <linearGradient id="bg6" x1="0" y1="0" x2="0" y2="1"><stop offset="0%" stop-color="#EDFFFF"/><stop offset="55%" stop-color="#5088B8"/><stop offset="100%" stop-color="#0D1B30"/></linearGradient>
    <filter id="bl6" x="-3%" y="-3%" width="106%" height="106%"><feGaussianBlur stdDeviation="2.4"/></filter>
    <radialGradient id="vg6" cx="50%" cy="50%" r="74%"><stop offset="0%" stop-color="transparent"/><stop offset="100%" stop-color="#091322" stop-opacity="0.30"/></radialGradient>
  </defs>
  <rect width="1200" height="200" fill="url(#bg6)"/>
  <circle cx="590" cy="165" r="30" fill="#FFFFFF" opacity="0.74"/>
  <g filter="url(#bl6)"><polygon points="0,400 0,317 141,311 282,338 423,366 564,319 705,321 847,352 988,373 1129,314 1270,324 1411,334 1552,317 1694,356 1835,330 1976,334 2117,357 2258,362 2400,351 2400,400" fill="#D0E8F4" opacity="0.93"/><polygon points="0,400 0,291 141,276 282,298 423,275 564,256 705,279 847,268 988,275 1129,253 1270,282 1411,287 1552,294 1694,291 1835,279 1976,292 2117,294 2258,253 2400,273 2400,400" fill="#88B8D8" opacity="0.93"/><polygon points="0,400 0,223 141,183 282,189 423,206 564,221 705,200 847,200 988,205 1129,183 1270,186 1411,209 1552,218 1694,208 1835,204 1976,223 2117,214 2258,202 2400,217 2400,400" fill="#5088B8" opacity="0.93"/><polygon points="0,400 0,135 141,133 282,134 423,129 564,131 705,120 847,138 988,124 1129,139 1270,146 1411,135 1552,126 1694,148 1835,146 1976,147 2117,119 2258,141 2400,140 2400,400" fill="#305878" opacity="0.93"/><polygon points="0,400 0,71 141,60 282,60 423,65 564,64 705,68 847,64 988,57 1129,58 1270,61 1411,58 1552,59 1694,70 1835,67 1976,71 2117,64 2258,65 2400,60 2400,400" fill="#102038" opacity="0.93"/></g>
  <g filter="url(#bl6)" opacity="0.88"><polygon points="445,44 438,65 452,65" fill="#070E19"/><polygon points="545,32 535,64 555,64" fill="#070E19"/><polygon points="1270,28 1259,61 1281,61" fill="#070E19"/><polygon points="111,35 102,62 120,62" fill="#070E19"/><polygon points="1544,44 1539,59 1549,59" fill="#070E19"/><polygon points="163,24 151,60 175,60" fill="#070E19"/><polygon points="1291,22 1279,60 1303,60" fill="#070E19"/><polygon points="1564,28 1554,60 1574,60" fill="#070E19"/><polygon points="1528,24 1517,59 1539,59" fill="#070E19"/><polygon points="84,35 75,64 93,64" fill="#070E19"/><polygon points="217,30 207,60 227,60" fill="#070E19"/><polygon points="169,25 158,60 180,60" fill="#070E19"/><polygon points="1782,37 1772,68 1792,68" fill="#070E19"/><polygon points="100,23 87,63 113,63" fill="#070E19"/><polygon points="767,49 762,66 772,66" fill="#070E19"/><polygon points="184,27 173,60 195,60" fill="#070E19"/><polygon points="921,41 915,60 927,60" fill="#070E19"/><polygon points="2073,46 2066,67 2080,67" fill="#070E19"/><polygon points="1617,33 1607,64 1627,64" fill="#070E19"/><polygon points="1403,30 1394,58 1412,58" fill="#070E19"/><polygon points="2170,32 2159,65 2181,65" fill="#070E19"/><polygon points="2278,30 2267,64 2289,64" fill="#070E19"/><polygon points="1370,29 1360,59 1380,59" fill="#070E19"/><polygon points="1373,40 1367,59 1379,59" fill="#070E19"/><polygon points="32,33 21,68 43,68" fill="#070E19"/><polygon points="237,30 227,60 247,60" fill="#070E19"/><polygon points="2014,33 2002,69 2026,69" fill="#070E19"/><polygon points="1976,44 1967,71 1985,71" fill="#070E19"/><polygon points="982,21 970,57 994,57" fill="#070E19"/><polygon points="54,47 48,67 60,67" fill="#070E19"/><polygon points="2002,31 1989,70 2015,70" fill="#070E19"/></g>
  <rect width="1200" height="200" fill="url(#vg6)"/>
</svg>