<svg width="2400" height="400" viewBox="0 0 2400 400" xmlns="http://www.w3.org/2000/svg">
<rect width="2400" height="400" fill="#FFD8A8"/>
<polygon points="0,300 600,240 1200,280 1800,220 2400,260 2400,400 0,400" fill="#F4A261"/>
<polygon points="0,350 800,300 1600,280 2400,330 2400,400 0,400" fill="#E76F51"/>
</svg>
  <defs>
    <linearGradient id="bg7" x1="0" y1="0" x2="0" y2="1"><stop offset="0%" stop-color="#F1FFFF"/><stop offset="55%" stop-color="#508868"/><stop offset="100%" stop-color="#0D2214"/></linearGradient>
    <filter id="bl7" x="-3%" y="-3%" width="106%" height="106%"><feGaussianBlur stdDeviation="2.4"/></filter>
    <radialGradient id="vg7" cx="50%" cy="50%" r="74%"><stop offset="0%" stop-color="transparent"/><stop offset="100%" stop-color="#09180E" stop-opacity="0.30"/></radialGradient>
  </defs>
  <rect width="2400" height="400" fill="url(#bg7)"/>
  <circle cx="829" cy="65" r="54" fill="#FFFFFF" opacity="0.74"/>
  <g filter="url(#bl7)"><polygon points="0,400 0,333 141,369 282,339 423,322 564,376 705,346 847,374 988,353 1129,360 1270,319 1411,331 1552,332 1694,353 1835,330 1976,319 2117,369 2258,334 2400,375 2400,400" fill="#D4F0E0" opacity="0.93"/><polygon points="0,400 0,275 141,292 282,269 423,287 564,259 705,292 847,265 988,266 1129,281 1270,250 1411,274 1552,287 1694,248 1835,277 1976,262 2117,283 2258,280 2400,299 2400,400" fill="#88C8A0" opacity="0.93"/><polygon points="0,400 0,205 141,194 282,213 423,203 564,223 705,224 847,185 988,204 1129,202 1270,203 1411,197 1552,201 1694,185 1835,196 1976,184 2117,217 2258,222 2400,222 2400,400" fill="#508868" opacity="0.93"/><polygon points="0,400 0,139 141,119 282,133 423,140 564,136 705,134 847,125 988,130 1129,121 1270,120 1411,135 1552,136 1694,147 1835,133 1976,134 2117,145 2258,122 2400,144 2400,400" fill="#305840" opacity="0.93"/><polygon points="0,400 0,68 141,66 282,69 423,61 564,66 705,62 847,64 988,59 1129,56 1270,56 1411,58 1552,65 1694,56 1835,67 1976,61 2117,65 2258,66 2400,62 2400,400" fill="#102818" opacity="0.93"/></g>
  <g filter="url(#bl7)" opacity="0.88"><polygon points="1359,37 1353,57 1365,57" fill="#07120B"/><polygon points="2078,43 2071,64 2085,64" fill="#07120B"/><polygon points="481,29 470,63 492,63" fill="#07120B"/><polygon points="534,34 524,65 544,65" fill="#07120B"/><polygon points="234,28 221,68 247,68" fill="#07120B"/><polygon points="804,23 791,63 817,63" fill="#07120B"/><polygon points="582,46 576,65 588,65" fill="#07120B"/><polygon points="759,36 751,62 767,62" fill="#07120B"/><polygon points="1121,34 1114,56 1128,56" fill="#07120B"/><polygon points="1014,23 1003,58 1025,58" fill="#07120B"/><polygon points="2040,28 2029,63 2051,63" fill="#07120B"/><polygon points="186,37 176,67 196,67" fill="#07120B"/><polygon points="38,38 29,67 47,67" fill="#07120B"/><polygon points="557,46 551,65 563,65" fill="#07120B"/><polygon points="2097,46 2091,64 2103,64" fill="#07120B"/><polygon points="1964,28 1953,62 1975,62" fill="#07120B"/><polygon points="411,28 400,62 422,62" fill="#07120B"/><polygon points="1052,18 1039,57 1065,57" fill="#07120B"/><polygon points="1107,38 1101,56 1113,56" fill="#07120B"/><polygon points="1366,42 1361,57 1371,57" fill="#07120B"/><polygon points="1736,30 1726,60 1746,60" fill="#07120B"/><polygon points="1821,35 1811,66 1831,66" fill="#07120B"/><polygon points="2130,45 2124,65 2136,65" fill="#07120B"/><polygon points="1490,31 1480,62 1500,62" fill="#07120B"/><polygon points="1083,30 1074,57 1092,57" fill="#07120B"/><polygon points="2236,45 2229,66 2243,66" fill="#07120B"/><polygon points="1378,42 1373,58 1383,58" fill="#07120B"/><polygon points="2021,44 2015,62 2027,62" fill="#07120B"/><polygon points="2,35 -9,68 13,68" fill="#07120B"/><polygon points="853,25 841,63 865,63" fill="#07120B"/><polygon points="1268,24 1258,56 1278,56" fill="#07120B"/><polygon points="350,28 338,65 362,65" fill="#07120B"/><polygon points="381,44 375,63 387,63" fill="#07120B"/><polygon points="215,41 207,67 223,67" fill="#07120B"/></g>
  <rect width="2400" height="400" fill="url(#vg7)"/>
</svg>