<svg xmlns="http://www.w3.org/2000/svg" viewBox="0 0 2400 400" width="1200" height="200" shape-rendering="geometricPrecision">
  <!-- Inked Night — Deep | Group B | night, deep, inky, painterly -->
  <defs>
    <linearGradient id="bg8" x1="0" y1="0" x2="0" y2="1"><stop offset="0%" stop-color="#FFEDFF"/><stop offset="55%" stop-color="#905898"/><stop offset="100%" stop-color="#1B0D22"/></linearGradient>
    <filter id="bl8" x="-3%" y="-3%" width="106%" height="106%"><feGaussianBlur stdDeviation="2.4"/></filter>
    <radialGradient id="vg8" cx="50%" cy="50%" r="74%"><stop offset="0%" stop-color="transparent"/><stop offset="100%" stop-color="#130918" stop-opacity="0.30"/></radialGradient>
  </defs>
  <rect width="1200" height="200" fill="url(#bg8)"/>
  <circle cx="1187" cy="149" r="39" fill="#FFFFFF" opacity="0.74"/>
  <g filter="url(#bl8)"><polygon points="0,400 0,330 141,344 282,348 423,368 564,322 705,355 847,337 988,351 1129,317 1270,328 1411,333 1552,370 1694,351 1835,331 1976,317 2117,313 2258,330 2400,346 2400,400" fill="#E8D0F4" opacity="0.93"/><polygon points="0,400 0,290 141,295 282,305 423,302 564,315 705,313 847,268 988,306 1129,289 1270,303 1411,277 1552,278 1694,273 1835,288 1976,313 2117,298 2258,262 2400,263 2400,400" fill="#C088D8" opacity="0.93"/><polygon points="0,400 0,216 141,208 282,246 423,229 564,236 705,235 847,217 988,211 1129,209 1270,213 1411,214 1552,210 1694,235 1835,224 1976,237 2117,221 2258,212 2400,214 2400,400" fill="#905898" opacity="0.93"/><polygon points="0,400 0,163 141,171 282,180 423,169 564,173 705,163 847,175 988,169 1129,167 1270,176 1411,180 1552,185 1694,175 1835,186 1976,185 2117,174 2258,158 2400,167 2400,400" fill="#583068" opacity="0.93"/><polygon points="0,400 0,124 141,112 282,110 423,126 564,130 705,110 847,118 988,119 1129,130 1270,110 1411,116 1552,123 1694,122 1835,121 1976,127 2117,128 2258,127 2400,116 2400,400" fill="#201028" opacity="0.93"/><polygon points="0,400 0,66 141,62 282,68 423,69 564,56 705,70 847,63 988,57 1129,56 1270,58 1411,61 1552,66 1694,66 1835,61 1976,70 2117,69 2258,69 2400,59 2400,400" fill="#E8D0F4" opacity="0.93"/></g>
  <g filter="url(#bl8)" opacity="0.88"><polygon points="1688,31 1677,66 1699,66" fill="#0E0712"/><polygon points="230,38 221,66 239,66" fill="#0E0712"/><polygon points="1089,23 1078,56 1100,56" fill="#0E0712"/><polygon points="1343,40 1337,60 1349,60" fill="#0E0712"/><polygon points="2003,38 1993,70 2013,70" fill="#0E0712"/><polygon points="1452,43 1446,63 1458,63" fill="#0E0712"/><polygon points="40,28 28,65 52,65" fill="#0E0712"/><polygon points="46,45 40,65 52,65" fill="#0E0712"/><polygon points="575,25 565,57 585,57" fill="#0E0712"/><polygon points="1179,38 1173,57 1185,57" fill="#0E0712"/><polygon points="2161,30 2148,69 2174,69" fill="#0E0712"/><polygon points="1979,34 1967,70 1991,70" fill="#0E0712"/><polygon points="1651,49 1646,66 1656,66" fill="#0E0712"/><polygon points="199,46 193,64 205,64" fill="#0E0712"/><polygon points="37,41 29,65 45,65" fill="#0E0712"/><polygon points="1098,24 1088,56 1108,56" fill="#0E0712"/><polygon points="1339,40 1333,60 1345,60" fill="#0E0712"/><polygon points="421,50 415,69 427,69" fill="#0E0712"/><polygon points="27,39 19,65 35,65" fill="#0E0712"/><polygon points="382,49 376,69 388,69" fill="#0E0712"/><polygon points="1293,33 1285,59 1301,59" fill="#0E0712"/><polygon points="1135,29 1126,56 1144,56" fill="#0E0712"/><polygon points="2132,52 2127,69 2137,69" fill="#0E0712"/><polygon points="564,40 559,56 569,56" fill="#0E0712"/><polygon points="1794,45 1789,62 1799,62" fill="#0E0712"/><polygon points="769,38 760,67 778,67" fill="#0E0712"/><polygon points="1874,41 1867,63 1881,63" fill="#0E0712"/><polygon points="448,33 437,67 459,67" fill="#0E0712"/><polygon points="2139,52 2134,69 2144,69" fill="#0E0712"/><polygon points="1621,50 1616,66 1626,66" fill="#0E0712"/><polygon points="912,45 907,60 917,60" fill="#0E0712"/><polygon points="525,41 519,60 531,60" fill="#0E0712"/><polygon points="96,47 91,63 101,63" fill="#0E0712"/><polygon points="1760,36 1751,64 1769,64" fill="#0E0712"/><polygon points="1078,16 1065,56 1091,56" fill="#0E0712"/><polygon points="2247,41 2238,69 2256,69" fill="#0E0712"/><polygon points="2287,42 2279,67 2295,67" fill="#0E0712"/><polygon points="215,42 208,65 222,65" fill="#0E0712"/><polygon points="2383,21 2370,60 2396,60" fill="#0E0712"/><polygon points="2351,26 2339,63 2363,63" fill="#0E0712"/><polygon points="54,45 48,65 60,65" fill="#0E0712"/><polygon points="1436,37 1428,62 1444,62" fill="#0E0712"/><polygon points="1964,47 1957,69 1971,69" fill="#0E0712"/><polygon points="617,22 604,62 630,62" fill="#0E0712"/><polygon points="792,31 781,66 803,66" fill="#0E0712"/></g>
  <rect width="1200" height="200" fill="url(#vg8)"/>
</svg>