<svg xmlns="http://www.w3.org/2000/svg" viewBox="0 0 2400 400" width="1200" height="200" shape-rendering="geometricPrecision">
  <!-- Frost Ridge — Snow | Group C | frost, snow, icy, atmospheric -->
  <defs>
    <linearGradient id="bg9" x1="0" y1="0" x2="0" y2="1"><stop offset="0%" stop-color="#FFFFFF"/><stop offset="55%" stop-color="#78A8CC"/><stop offset="100%" stop-color="#14223D"/></linearGradient>
    <filter id="fd9" x="0" y="0" width="100%" height="100%"><feTurbulence type="fractalNoise" baseFrequency="0.010 0.020" numOctaves="4" seed="10009" result="nz"/><feDisplacementMap in="SourceGraphic" in2="nz" scale="60" xChannelSelector="R" yChannelSelector="G"/></filter>
    <radialGradient id="vg9" cx="50%" cy="50%" r="74%"><stop offset="0%" stop-color="transparent"/><stop offset="100%" stop-color="#0E182C" stop-opacity="0.30"/></radialGradient>
  </defs>
  <rect width="1200" height="200" fill="url(#bg9)"/>
  <circle cx="945" cy="56" r="26" fill="#FFFFFF" opacity="0.74"/>
  <polygon points="0,400 0,337 141,328 282,311 423,350 564,327 705,347 847,337 988,315 1129,313 1270,326 1411,353 1552,342 1694,355 1835,348 1976,375 2117,331 2258,347 2400,341 2400,400" fill="#F4F8FC"/>
  <polygon points="0,400 0,290 141,305 282,305 423,268 564,323 705,323 847,268 988,298 1129,301 1270,295 1411,290 1552,313 1694,306 1835,318 1976,320 2117,310 2258,284 2400,302 2400,400" fill="#C8DCF0"/>
  <polygon points="0,400 0,270 141,228 282,253 423,252 564,227 705,226 847,253 988,237 1129,260 1270,256 1411,268 1552,248 1694,252 1835,260 1976,244 2117,229 2258,271 2400,234 2400,400" fill="#78A8CC"/>
  <polygon points="0,400 0,192 141,203 282,189 423,219 564,212 705,192 847,203 988,188 1129,194 1270,212 1411,206 1552,200 1694,194 1835,212 1976,196 2117,184 2258,190 2400,185 2400,400" fill="#3868A0"/>
  <polygon points="0,400 0,153 141,148 282,171 423,143 564,162 705,166 847,170 988,166 1129,146 1270,165 1411,155 1552,161 1694,166 1835,171 1976,147 2117,141 2258,172 2400,160 2400,400" fill="#182848"/>
  <polygon points="0,400 0,110 141,112 282,102 423,116 564,109 705,110 847,100 988,108 1129,121 1270,119 1411,111 1552,116 1694,112 1835,113 1976,106 2117,107 2258,107 2400,103 2400,400" fill="#F4F8FC"/>
  <polygon points="0,400 0,59 141,66 282,69 423,69 564,63 705,56 847,56 988,62 1129,66 1270,68 1411,64 1552,66 1694,70 1835,69 1976,67 2117,67 2258,59 2400,64 2400,400" fill="#C8DCF0"/>
  <g id="trees"><polygon points="484,49 478,67 490,67" fill="#0B1221"/><polygon points="1844,53 1839,69 1849,69" fill="#0B1221"/><polygon points="1714,52 1708,70 1720,70" fill="#0B1221"/><polygon points="2240,38 2233,60 2247,60" fill="#0B1221"/><polygon points="2071,43 2063,67 2079,67" fill="#0B1221"/><polygon points="820,38 814,56 826,56" fill="#0B1221"/><polygon points="1148,32 1137,66 1159,66" fill="#0B1221"/><polygon points="2019,28 2006,67 2032,67" fill="#0B1221"/><polygon points="1916,48 1910,68 1922,68" fill="#0B1221"/><polygon points="1813,41 1804,69 1822,69" fill="#0B1221"/><polygon points="1748,38 1738,70 1758,70" fill="#0B1221"/><polygon points="672,37 666,57 678,57" fill="#0B1221"/><polygon points="513,49 508,66 518,66" fill="#0B1221"/><polygon points="1843,34 1832,69 1854,69" fill="#0B1221"/><polygon points="2046,41 2038,67 2054,67" fill="#0B1221"/><polygon points="1295,51 1290,67 1300,67" fill="#0B1221"/><polygon points="128,40 120,66 136,66" fill="#0B1221"/><polygon points="2016,33 2005,67 2027,67" fill="#0B1221"/><polygon points="2199,28 2188,62 2210,62" fill="#0B1221"/><polygon points="1906,49 1900,68 1912,68" fill="#0B1221"/><polygon points="594,44 588,62 600,62" fill="#0B1221"/><polygon points="841,19 829,56 853,56" fill="#0B1221"/><polygon points="189,50 184,67 194,67" fill="#0B1221"/><polygon points="630,28 620,60 640,60" fill="#0B1221"/><polygon points="1159,32 1148,66 1170,66" fill="#0B1221"/><polygon points="685,19 673,57 697,57" fill="#0B1221"/><polygon points="997,30 986,63 1008,63" fill="#0B1221"/><polygon points="131,48 125,66 137,66" fill="#0B1221"/><polygon points="53,42 47,62 59,62" fill="#0B1221"/><polygon points="370,40 361,69 379,69" fill="#0B1221"/><polygon points="1853,48 1846,69 1860,69" fill="#0B1221"/><polygon points="1155,45 1148,66 1162,66" fill="#0B1221"/><polygon points="2341,27 2330,62 2352,62" fill="#0B1221"/><polygon points="1770,45 1762,70 1778,70" fill="#0B1221"/><polygon points="1646,47 1639,69 1653,69" fill="#0B1221"/><polygon points="1384,47 1378,65 1390,65" fill="#0B1221"/><polygon points="2017,39 2008,67 2026,67" fill="#0B1221"/><polygon points="205,38 195,68 215,68" fill="#0B1221"/><polygon points="116,35 106,65 126,65" fill="#0B1221"/><polygon points="1035,32 1025,64 1045,64" fill="#0B1221"/><polygon points="622,20 609,60 635,60" fill="#0B1221"/><polygon points="1679,42 1670,70 1688,70" fill="#0B1221"/><polygon points="1838,31 1826,69 1850,69" fill="#0B1221"/><polygon points="1926,28 1913,68 1939,68" fill="#0B1221"/><polygon points="144,28 132,66 156,66" fill="#0B1221"/><polygon points="1136,31 1125,66 1147,66" fill="#0B1221"/><polygon points="821,24 811,56 831,56" fill="#0B1221"/><polygon points="1961,47 1955,67 1967,67" fill="#0B1221"/></g>
  <rect width="1200" height="200" fill="#FFFFFF" filter="url(#fd9)" opacity="0.28"/>
  <rect width="1200" height="200" fill="url(#vg9)"/>
</svg>