<svg width="2400" height="400" viewBox="0 0 2400 400" xmlns="http://www.w3.org/2000/svg">
<rect width="2400" height="400" fill="#EAEAEA"/>
<polygon points="0,300 600,260 1200,280 1800,240 2400,280 2400,400 0,400" fill="#CFCFCF"/>
<polygon points="0,360 800,300 1600,280 2400,330 2400,400 0,400" fill="#A0A0A0"/>
</svg>
  <defs>
    <linearGradient id="bg10" x1="0" y1="0" x2="0" y2="1"><stop offset="0%" stop-color="#FFFFFF"/><stop offset="55%" stop-color="#A88858"/><stop offset="100%" stop-color="#222214"/></linearGradient>
    <filter id="fd10" x="0" y="0" width="100%" height="100%"><feTurbulence type="fractalNoise" baseFrequency="0.010 0.020" numOctaves="4" seed="10010" result="nz"/><feDisplacementMap in="SourceGraphic" in2="nz" scale="60" xChannelSelector="R" yChannelSelector="G"/></filter>
    <radialGradient id="vg10" cx="50%" cy="50%" r="74%"><stop offset="0%" stop-color="transparent"/><stop offset="100%" stop-color="#18180E" stop-opacity="0.30"/></radialGradient>
  </defs>
  <rect width="2400" height="400" fill="url(#bg10)"/>
  <polygon points="0,400 0,312 141,330 282,324 423,373 564,356 705,356 847,314 988,366 1129,315 1270,350 1411,368 1552,329 1694,319 1835,376 1976,349 2117,364 2258,335 2400,329 2400,400" fill="#F8F0E0"/>
  <polygon points="0,400 0,288 141,275 282,265 423,274 564,302 705,295 847,268 988,291 1129,302 1270,304 1411,281 1552,296 1694,267 1835,295 1976,275 2117,313 2258,272 2400,283 2400,400" fill="#E0C898"/>
  <polygon points="0,400 0,250 141,238 282,247 423,245 564,236 705,237 847,223 988,249 1129,221 1270,218 1411,237 1552,242 1694,228 1835,239 1976,250 2117,247 2258,208 2400,249 2400,400" fill="#A88858"/>
  <polygon points="0,400 0,163 141,181 282,172 423,163 564,180 705,189 847,184 988,173 1129,191 1270,166 1411,191 1552,164 1694,181 1835,176 1976,179 2117,174 2258,159 2400,186 2400,400" fill="#686040"/>
  <polygon points="0,400 0,116 141,125 282,121 423,111 564,123 705,128 847,115 988,125 1129,109 1270,117 1411,107 1552,107 1694,127 1835,115 1976,112 2117,115 2258,125 2400,130 2400,400" fill="#282818"/>
  <polygon points="0,400 0,68 141,64 282,66 423,68 564,64 705,67 847,64 988,70 1129,70 1270,62 1411,60 1552,62 1694,62 1835,70 1976,70 2117,60 2258,69 2400,65 2400,400" fill="#F8F0E0"/>
  <g id="trees"><polygon points="1873,44 1865,70 1881,70" fill="#12120B"/><polygon points="1390,45 1385,60 1395,60" fill="#12120B"/><polygon points="2353,51 2348,66 2358,66" fill="#12120B"/><polygon points="39,52 34,67 44,67" fill="#12120B"/><polygon points="1178,34 1167,67 1189,67" fill="#12120B"/><polygon points="157,27 145,64 169,64" fill="#12120B"/><polygon points="2043,44 2036,65 2050,65" fill="#12120B"/><polygon points="644,38 635,66 653,66" fill="#12120B"/><polygon points="997,46 989,70 1005,70" fill="#12120B"/><polygon points="820,25 807,64 833,64" fill="#12120B"/><polygon points="1775,49 1770,66 1780,66" fill="#12120B"/><polygon points="206,50 201,65 211,65" fill="#12120B"/><polygon points="2335,27 2322,67 2348,67" fill="#12120B"/><polygon points="1626,22 1613,62 1639,62" fill="#12120B"/><polygon points="2185,40 2177,64 2193,64" fill="#12120B"/><polygon points="631,27 619,65 643,65" fill="#12120B"/><polygon points="2309,32 2298,67 2320,67" fill="#12120B"/><polygon points="284,37 275,66 293,66" fill="#12120B"/><polygon points="1121,36 1110,70 1132,70" fill="#12120B"/><polygon points="1262,43 1256,62 1268,62" fill="#12120B"/><polygon points="156,38 148,64 164,64" fill="#12120B"/><polygon points="1444,38 1437,60 1451,60" fill="#12120B"/><polygon points="635,43 628,66 642,66" fill="#12120B"/><polygon points="1789,33 1778,67 1800,67" fill="#12120B"/><polygon points="2311,29 2299,67 2323,67" fill="#12120B"/><polygon points="2005,36 1995,68 2015,68" fill="#12120B"/><polygon points="1576,23 1563,62 1589,62" fill="#12120B"/><polygon points="949,48 943,68 955,68" fill="#12120B"/><polygon points="1658,40 1651,62 1665,62" fill="#12120B"/><polygon points="374,50 368,68 380,68" fill="#12120B"/><polygon points="1064,37 1053,70 1075,70" fill="#12120B"/><polygon points="1582,32 1572,62 1592,62" fill="#12120B"/><polygon points="2107,44 2102,60 2112,60" fill="#12120B"/><polygon points="439,28 426,68 452,68" fill="#12120B"/></g>
  <rect width="2400" height="400" fill="#FFFCEB" filter="url(#fd10)" opacity="0.28"/>
  <rect width="2400" height="400" fill="url(#vg10)"/>
</svg>