<svg xmlns="http://www.w3.org/2000/svg" viewBox="0 0 2400 400" width="1200" height="200" shape-rendering="geometricPrecision">
  <!-- Starry Dusk — Indigo | Group C | stars, indigo, dusk, night -->
  <defs>
    <linearGradient id="bg12" x1="0" y1="0" x2="0" y2="1"><stop offset="0%" stop-color="#1B1F2D"/><stop offset="55%" stop-color="#5878B0"/><stop offset="100%" stop-color="#C0C7D5"/></linearGradient>
    <filter id="fd12" x="0" y="0" width="100%" height="100%"><feTurbulence type="fractalNoise" baseFrequency="0.010 0.020" numOctaves="4" seed="10012" result="nz"/><feDisplacementMap in="SourceGraphic" in2="nz" scale="60" xChannelSelector="R" yChannelSelector="G"/></filter>
    <radialGradient id="vg12" cx="50%" cy="50%" r="74%"><stop offset="0%" stop-color="transparent"/><stop offset="100%" stop-color="#8A8F99" stop-opacity="0.30"/></radialGradient>
  </defs>
  <rect width="1200" height="200" fill="url(#bg12)"/>
  <circle cx="1802" cy="33" r="25" fill="#22283A" opacity="0.74"/>
  <g id="stars12"><circle cx="321" cy="22" r="1" fill="#E8EEFF" opacity="0.55"/><circle cx="1302" cy="85" r="1" fill="#E8EEFF" opacity="0.64"/><circle cx="561" cy="46" r="1" fill="#E8EEFF" opacity="0.55"/><circle cx="1417" cy="114" r="1" fill="#E8EEFF" opacity="0.91"/><circle cx="1940" cy="94" r="2" fill="#E8EEFF" opacity="0.69"/><circle cx="2206" cy="70" r="1" fill="#E8EEFF" opacity="0.91"/><circle cx="621" cy="167" r="2" fill="#E8EEFF" opacity="0.79"/><circle cx="190" cy="121" r="1" fill="#E8EEFF" opacity="0.98"/><circle cx="1546" cy="92" r="1" fill="#E8EEFF" opacity="0.78"/><circle cx="1406" cy="72" r="1" fill="#E8EEFF" opacity="0.62"/><circle cx="32" cy="131" r="1" fill="#E8EEFF" opacity="0.81"/><circle cx="1568" cy="106" r="1" fill="#E8EEFF" opacity="0.99"/><circle cx="1596" cy="149" r="1" fill="#E8EEFF" opacity="0.59"/><circle cx="45" cy="15" r="1" fill="#E8EEFF" opacity="0.46"/><circle cx="18" cy="122" r="1" fill="#E8EEFF" opacity="0.74"/><circle cx="1256" cy="158" r="1" fill="#E8EEFF" opacity="0.59"/><circle cx="1597" cy="59" r="2" fill="#E8EEFF" opacity="0.99"/><circle cx="637" cy="125" r="1" fill="#E8EEFF" opacity="0.44"/><circle cx="786" cy="153" r="1" fill="#E8EEFF" opacity="0.81"/><circle cx="813" cy="28" r="1" fill="#E8EEFF" opacity="0.96"/><circle cx="2379" cy="6" r="1" fill="#E8EEFF" opacity="0.75"/><circle cx="679" cy="44" r="2" fill="#E8EEFF" opacity="0.66"/><circle cx="1557" cy="157" r="1" fill="#E8EEFF" opacity="0.57"/><circle cx="1040" cy="11" r="1" fill="#E8EEFF" opacity="0.63"/><circle cx="621" cy="95" r="1" fill="#E8EEFF" opacity="0.69"/><circle cx="467" cy="101" r="1" fill="#E8EEFF" opacity="0.71"/><circle cx="1288" cy="111" r="1" fill="#E8EEFF" opacity="0.61"/><circle cx="1752" cy="22" r="1" fill="#E8EEFF" opacity="0.82"/><circle cx="847" cy="126" r="1" fill="#E8EEFF" opacity="0.87"/><circle cx="997" cy="155" r="1" fill="#E8EEFF" opacity="0.70"/><circle cx="1153" cy="91" r="2" fill="#E8EEFF" opacity="0.78"/><circle cx="1449" cy="66" r="1" fill="#E8EEFF" opacity="0.54"/><circle cx="946" cy="146" r="1" fill="#E8EEFF" opacity="0.48"/><circle cx="196" cy="128" r="2" fill="#E8EEFF" opacity="0.50"/><circle cx="1489" cy="130" r="2" fill="#E8EEFF" opacity="0.43"/><circle cx="1151" cy="104" r="1" fill="#E8EEFF" opacity="0.74"/><circle cx="1828" cy="102" r="1" fill="#E8EEFF" opacity="0.46"/><circle cx="309" cy="76" r="2" fill="#E8EEFF" opacity="0.84"/><circle cx="255" cy="125" r="1" fill="#E8EEFF" opacity="0.87"/><circle cx="777" cy="96" r="1" fill="#E8EEFF" opacity="0.93"/><circle cx="422" cy="159" r="2" fill="#E8EEFF" opacity="0.91"/><circle cx="38" cy="176" r="1" fill="#E8EEFF" opacity="0.74"/><circle cx="86" cy="89" r="1" fill="#E8EEFF" opacity="0.98"/><circle cx="870" cy="136" r="1" fill="#E8EEFF" opacity="0.64"/><circle cx="2259" cy="27" r="1" fill="#E8EEFF" opacity="0.95"/><circle cx="2116" cy="87" r="1" fill="#E8EEFF" opacity="0.95"/><circle cx="196" cy="111" r="1" fill="#E8EEFF" opacity="0.85"/><circle cx="1875" cy="34" r="2" fill="#E8EEFF" opacity="0.51"/><circle cx="1971" cy="110" r="1" fill="#E8EEFF" opacity="0.51"/><circle cx="388" cy="169" r="1" fill="#E8EEFF" opacity="0.66"/><circle cx="2084" cy="9" r="1" fill="#E8EEFF" opacity="0.57"/><circle cx="1999" cy="50" r="2" fill="#E8EEFF" opacity="0.60"/><circle cx="2376" cy="14" r="1" fill="#E8EEFF" opacity="0.80"/><circle cx="1271" cy="121" r="1" fill="#E8EEFF" opacity="0.83"/><circle cx="2370" cy="29" r="2" fill="#E8EEFF" opacity="0.61"/><circle cx="719" cy="61" r="1" fill="#E8EEFF" opacity="0.60"/><circle cx="1555" cy="106" r="2" fill="#E8EEFF" opacity="0.67"/><circle cx="1473" cy="104" r="1" fill="#E8EEFF" opacity="0.93"/><circle cx="459" cy="94" r="2" fill="#E8EEFF" opacity="0.47"/><circle cx="1564" cy="106" r="1" fill="#E8EEFF" opacity="0.55"/><circle cx="1831" cy="62" r="2" fill="#E8EEFF" opacity="0.53"/><circle cx="976" cy="35" r="1" fill="#E8EEFF" opacity="0.99"/><circle cx="1614" cy="17" r="1" fill="#E8EEFF" opacity="0.78"/><circle cx="857" cy="13" r="1" fill="#E8EEFF" opacity="0.56"/><circle cx="4" cy="174" r="1" fill="#E8EEFF" opacity="0.61"/><circle cx="82" cy="86" r="1" fill="#E8EEFF" opacity="0.65"/><circle cx="453" cy="124" r="2" fill="#E8EEFF" opacity="0.55"/><circle cx="1580" cy="54" r="1" fill="#E8EEFF" opacity="0.53"/><circle cx="1003" cy="126" r="1" fill="#E8EEFF" opacity="0.93"/><circle cx="357" cy="167" r="1" fill="#E8EEFF" opacity="0.45"/><circle cx="2225" cy="112" r="1" fill="#E8EEFF" opacity="0.52"/><circle cx="588" cy="51" r="1" fill="#E8EEFF" opacity="0.46"/><circle cx="436" cy="102" r="1" fill="#E8EEFF" opacity="0.80"/><circle cx="521" cy="134" r="2" fill="#E8EEFF" opacity="0.45"/><circle cx="2398" cy="113" r="1" fill="#E8EEFF" opacity="0.60"/><circle cx="1696" cy="132" r="2" fill="#E8EEFF" opacity="0.60"/><circle cx="1288" cy="163" r="1" fill="#E8EEFF" opacity="0.97"/><circle cx="687" cy="147" r="1" fill="#E8EEFF" opacity="0.45"/><circle cx="1167" cy="130" r="2" fill="#E8EEFF" opacity="0.59"/><circle cx="67" cy="59" r="1" fill="#E8EEFF" opacity="0.57"/><circle cx="858" cy="48" r="1" fill="#E8EEFF" opacity="0.51"/><circle cx="1015" cy="167" r="1" fill="#E8EEFF" opacity="0.95"/><circle cx="1585" cy="167" r="1" fill="#E8EEFF" opacity="0.57"/><circle cx="1981" cy="168" r="1" fill="#E8EEFF" opacity="0.58"/><circle cx="98" cy="92" r="1" fill="#E8EEFF" opacity="0.45"/><circle cx="141" cy="163" r="1" fill="#E8EEFF" opacity="0.53"/><circle cx="934" cy="73" r="1" fill="#E8EEFF" opacity="0.65"/><circle cx="981" cy="85" r="2" fill="#E8EEFF" opacity="0.83"/><circle cx="728" cy="48" r="1" fill="#E8EEFF" opacity="0.92"/><circle cx="297" cy="160" r="1" fill="#E8EEFF" opacity="0.66"/><circle cx="2261" cy="103" r="1" fill="#E8EEFF" opacity="0.67"/><circle cx="1042" cy="41" r="1" fill="#E8EEFF" opacity="0.56"/><circle cx="1341" cy="157" r="1" fill="#E8EEFF" opacity="0.78"/><circle cx="1402" cy="4" r="1" fill="#E8EEFF" opacity="0.69"/><circle cx="2201" cy="24" r="2" fill="#E8EEFF" opacity="0.56"/><circle cx="2337" cy="25" r="2" fill="#E8EEFF" opacity="0.91"/><circle cx="1525" cy="104" r="1" fill="#E8EEFF" opacity="0.93"/><circle cx="322" cy="34" r="1" fill="#E8EEFF" opacity="0.88"/><circle cx="97" cy="52" r="2" fill="#E8EEFF" opacity="0.70"/><circle cx="2093" cy="66" r="1" fill="#E8EEFF" opacity="0.77"/><circle cx="931" cy="79" r="2" fill="#E8EEFF" opacity="0.64"/><circle cx="676" cy="149" r="1" fill="#E8EEFF" opacity="0.47"/><circle cx="2301" cy="14" r="1" fill="#E8EEFF" opacity="0.74"/><circle cx="1385" cy="116" r="1" fill="#E8EEFF" opacity="0.93"/><circle cx="1565" cy="90" r="2" fill="#E8EEFF" opacity="0.43"/><circle cx="1258" cy="96" r="1" fill="#E8EEFF" opacity="0.47"/><circle cx="1508" cy="0" r="1" fill="#E8EEFF" opacity="0.61"/><circle cx="821" cy="127" r="2" fill="#E8EEFF" opacity="0.79"/><circle cx="1698" cy="76" r="1" fill="#E8EEFF" opacity="0.90"/><circle cx="2154" cy="109" r="1" fill="#E8EEFF" opacity="0.48"/><circle cx="2175" cy="46" r="1" fill="#E8EEFF" opacity="0.97"/><circle cx="806" cy="17" r="1" fill="#E8EEFF" opacity="0.84"/><circle cx="97" cy="46" r="2" fill="#E8EEFF" opacity="0.51"/><circle cx="1483" cy="172" r="1" fill="#E8EEFF" opacity="0.56"/><circle cx="730" cy="43" r="1" fill="#E8EEFF" opacity="0.42"/><circle cx="1644" cy="5" r="1" fill="#E8EEFF" opacity="0.55"/><circle cx="785" cy="25" r="2" fill="#E8EEFF" opacity="0.88"/><circle cx="1943" cy="130" r="1" fill="#E8EEFF" opacity="0.90"/><circle cx="1168" cy="139" r="1" fill="#E8EEFF" opacity="0.46"/><circle cx="2295" cy="156" r="1" fill="#E8EEFF" opacity="0.62"/><circle cx="822" cy="104" r="1" fill="#E8EEFF" opacity="0.80"/><circle cx="1877" cy="167" r="2" fill="#E8EEFF" opacity="0.87"/><circle cx="2256" cy="82" r="1" fill="#E8EEFF" opacity="0.79"/><circle cx="2327" cy="70" r="1" fill="#E8EEFF" opacity="0.97"/><circle cx="777" cy="72" r="1" fill="#E8EEFF" opacity="0.58"/><circle cx="1501" cy="166" r="2" fill="#E8EEFF" opacity="0.51"/></g>
  <polygon points="0,400 0,356 141,340 282,368 423,347 564,345 705,338 847,316 988,320 1129,367 1270,340 1411,341 1552,368 1694,329 1835,332 1976,365 2117,322 2258,355 2400,322 2400,400" fill="#181C28"/>
  <polygon points="0,400 0,310 141,314 282,282 423,291 564,293 705,289 847,283 988,312 1129,313 1270,311 1411,283 1552,289 1694,277 1835,261 1976,308 2117,269 2258,261 2400,307 2400,400" fill="#283C60"/>
  <polygon points="0,400 0,212 141,237 282,224 423,240 564,220 705,229 847,232 988,251 1129,211 1270,253 1411,239 1552,213 1694,249 1835,224 1976,219 2117,253 2258,208 2400,221 2400,400" fill="#5878B0"/>
  <polygon points="0,400 0,164 141,183 282,158 423,173 564,180 705,183 847,175 988,177 1129,164 1270,179 1411,164 1552,163 1694,167 1835,159 1976,192 2117,176 2258,170 2400,186 2400,400" fill="#98B0D8"/>
  <polygon points="0,400 0,111 141,127 282,109 423,106 564,125 705,130 847,109 988,121 1129,124 1270,113 1411,108 1552,112 1694,118 1835,117 1976,118 2117,128 2258,127 2400,128 2400,400" fill="#E0E8F8"/>
  <polygon points="0,400 0,68 141,58 282,61 423,66 564,68 705,68 847,56 988,66 1129,67 1270,70 1411,60 1552,58 1694,58 1835,68 1976,68 2117,70 2258,57 2400,62 2400,400" fill="#181C28"/>
  <g id="trees"><polygon points="598,29 585,68 611,68" fill="#676A72"/><polygon points="132,20 120,58 144,58" fill="#676A72"/><polygon points="1864,39 1855,68 1873,68" fill="#676A72"/><polygon points="1335,36 1326,65 1344,65" fill="#676A72"/><polygon points="1945,48 1939,68 1951,68" fill="#676A72"/><polygon points="2344,20 2331,60 2357,60" fill="#676A72"/><polygon points="1011,31 1000,66 1022,66" fill="#676A72"/><polygon points="1236,46 1229,69 1243,69" fill="#676A72"/><polygon points="557,52 552,68 562,68" fill="#676A72"/><polygon points="1408,36 1400,60 1416,60" fill="#676A72"/><polygon points="666,36 656,68 676,68" fill="#676A72"/><polygon points="1954,37 1944,68 1964,68" fill="#676A72"/><polygon points="545,38 535,68 555,68" fill="#676A72"/><polygon points="2284,30 2275,58 2293,58" fill="#676A72"/><polygon points="679,38 669,68 689,68" fill="#676A72"/><polygon points="373,40 365,64 381,64" fill="#676A72"/><polygon points="1721,43 1716,60 1726,60" fill="#676A72"/><polygon points="237,40 231,60 243,60" fill="#676A72"/><polygon points="1664,32 1656,58 1672,58" fill="#676A72"/><polygon points="1736,44 1731,61 1741,61" fill="#676A72"/><polygon points="1199,49 1193,69 1205,69" fill="#676A72"/><polygon points="426,39 417,66 435,66" fill="#676A72"/><polygon points="1786,43 1779,65 1793,65" fill="#676A72"/><polygon points="881,20 868,59 894,59" fill="#676A72"/><polygon points="931,36 923,62 939,62" fill="#676A72"/><polygon points="1707,33 1699,59 1715,59" fill="#676A72"/><polygon points="1431,44 1426,60 1436,60" fill="#676A72"/><polygon points="356,48 351,64 361,64" fill="#676A72"/><polygon points="440,29 428,67 452,67" fill="#676A72"/><polygon points="1763,45 1757,63 1769,63" fill="#676A72"/><polygon points="1327,47 1321,66 1333,66" fill="#676A72"/><polygon points="1489,35 1481,59 1497,59" fill="#676A72"/><polygon points="956,36 947,64 965,64" fill="#676A72"/><polygon points="485,51 480,67 490,67" fill="#676A72"/><polygon points="1881,28 1868,68 1894,68" fill="#676A72"/><polygon points="1598,36 1591,58 1605,58" fill="#676A72"/><polygon points="1477,20 1464,59 1490,59" fill="#676A72"/><polygon points="285,22 272,61 298,61" fill="#676A72"/><polygon points="514,52 509,67 519,67" fill="#676A72"/></g>
  <rect width="1200" height="200" fill="#191D2A" filter="url(#fd12)" opacity="0.28"/>
  <rect width="1200" height="200" fill="url(#vg12)"/>
</svg>