<svg width="2400" height="400" viewBox="0 0 2400 400" xmlns="http://www.w3.org/2000/svg">
<rect width="2400" height="400" fill="#D9A27E"/>
<polygon points="0,310 500,250 1000,290 1600,250 2400,300 2400,400 0,400" fill="#B07A5C"/>
<polygon points="0,360 700,310 1500,290 2400,350 2400,400 0,400" fill="#8A5A44"/>
</svg>
  <defs>
    <linearGradient id="bg13" x1="0" y1="0" x2="0" y2="1"><stop offset="0%" stop-color="#FFFFF1"/><stop offset="55%" stop-color="#987860"/><stop offset="100%" stop-color="#221406"/></linearGradient>
    <filter id="gr13" x="0" y="0" width="100%" height="100%"><feTurbulence type="fractalNoise" baseFrequency="0.68" numOctaves="3" stitchTiles="stitch" seed="10013" result="nz"/><feColorMatrix type="saturate" values="0" in="nz" result="gnz"/><feBlend in="SourceGraphic" in2="gnz" mode="soft-light"/></filter>
    <filter id="dp13"><feTurbulence type="turbulence" baseFrequency="0.020" numOctaves="2" seed="10020" result="dn"/><feDisplacementMap in="SourceGraphic" in2="dn" scale="6" xChannelSelector="R" yChannelSelector="G"/></filter>
  </defs>
  <g filter="url(#gr13)">
  <rect width="2400" height="400" fill="url(#bg13)"/>
  <circle cx="459" cy="126" r="33" fill="#FFFFFF" opacity="0.74"/>
  <polygon points="0,400 0,337 141,372 282,341 423,331 564,350 705,323 847,328 988,355 1129,314 1270,368 1411,347 1552,317 1694,320 1835,352 1976,350 2117,331 2258,339 2400,322 2400,400" fill="#F0E4D4" filter="url(#dp13)"/>
  <polygon points="0,400 0,268 141,313 282,276 423,306 564,283 705,300 847,289 988,268 1129,296 1270,307 1411,274 1552,280 1694,261 1835,264 1976,297 2117,286 2258,309 2400,268 2400,400" fill="#C8A888" filter="url(#dp13)"/>
  <polygon points="0,400 0,244 141,238 282,246 423,232 564,213 705,252 847,233 988,249 1129,232 1270,240 1411,235 1552,209 1694,212 1835,208 1976,222 2117,228 2258,234 2400,210 2400,400" fill="#987860" filter="url(#dp13)"/>
  <polygon points="0,400 0,176 141,188 282,175 423,169 564,177 705,168 847,170 988,172 1129,174 1270,186 1411,190 1552,174 1694,188 1835,184 1976,192 2117,184 2258,178 2400,184 2400,400" fill="#685040" filter="url(#dp13)"/>
  <polygon points="0,400 0,116 141,113 282,127 423,123 564,114 705,130 847,122 988,107 1129,108 1270,121 1411,128 1552,119 1694,125 1835,113 1976,121 2117,115 2258,124 2400,114 2400,400" fill="#281808" filter="url(#dp13)"/>
  <polygon points="0,400 0,59 141,61 282,65 423,65 564,66 705,63 847,71 988,59 1129,66 1270,69 1411,65 1552,56 1694,56 1835,65 1976,70 2117,71 2258,64 2400,56 2400,400" fill="#F0E4D4" filter="url(#dp13)"/>
  <g id="trees"><polygon points="767,43 759,67 775,67" fill="#120B03"/><polygon points="2356,34 2348,59 2364,59" fill="#120B03"/><polygon points="805,52 800,69 810,69" fill="#120B03"/><polygon points="283,39 275,65 291,65" fill="#120B03"/><polygon points="316,45 310,65 322,65" fill="#120B03"/><polygon points="1424,24 1411,64 1437,64" fill="#120B03"/><polygon points="1963,38 1953,69 1973,69" fill="#120B03"/><polygon points="82,34 74,60 90,60" fill="#120B03"/><polygon points="1479,43 1474,60 1484,60" fill="#120B03"/><polygon points="1182,44 1174,68 1190,68" fill="#120B03"/><polygon points="1623,18 1611,56 1635,56" fill="#120B03"/><polygon points="940,46 935,63 945,63" fill="#120B03"/><polygon points="1277,46 1270,69 1284,69" fill="#120B03"/><polygon points="173,35 164,62 182,62" fill="#120B03"/><polygon points="48,41 42,60 54,60" fill="#120B03"/><polygon points="706,47 701,63 711,63" fill="#120B03"/><polygon points="1862,41 1854,66 1870,66" fill="#120B03"/><polygon points="2354,28 2344,59 2364,59" fill="#120B03"/><polygon points="1902,41 1894,67 1910,67" fill="#120B03"/><polygon points="1700,39 1694,57 1706,57" fill="#120B03"/><polygon points="1090,25 1077,64 1103,64" fill="#120B03"/><polygon points="375,38 366,65 384,65" fill="#120B03"/><polygon points="430,42 423,65 437,65" fill="#120B03"/><polygon points="535,39 526,66 544,66" fill="#120B03"/><polygon points="190,46 185,62 195,62" fill="#120B03"/><polygon points="977,39 970,60 984,60" fill="#120B03"/><polygon points="1169,37 1159,67 1179,67" fill="#120B03"/><polygon points="829,35 818,70 840,70" fill="#120B03"/><polygon points="2291,25 2279,62 2303,62" fill="#120B03"/><polygon points="2357,21 2345,58 2369,58" fill="#120B03"/><polygon points="779,43 771,67 787,67" fill="#120B03"/><polygon points="2129,50 2122,71 2136,71" fill="#120B03"/><polygon points="1804,31 1794,63 1814,63" fill="#120B03"/><polygon points="876,40 867,69 885,69" fill="#120B03"/><polygon points="2196,33 2185,67 2207,67" fill="#120B03"/><polygon points="2148,34 2136,70 2160,70" fill="#120B03"/><polygon points="929,42 922,64 936,64" fill="#120B03"/><polygon points="1752,22 1740,60 1764,60" fill="#120B03"/><polygon points="1788,28 1777,62 1799,62" fill="#120B03"/><polygon points="718,48 713,64 723,64" fill="#120B03"/><polygon points="2356,35 2348,59 2364,59" fill="#120B03"/><polygon points="261,28 249,65 273,65" fill="#120B03"/><polygon points="1849,35 1839,65 1859,65" fill="#120B03"/><polygon points="1177,32 1165,68 1189,68" fill="#120B03"/><polygon points="1944,29 1931,69 1957,69" fill="#120B03"/><polygon points="772,45 765,67 779,67" fill="#120B03"/><polygon points="792,51 787,68 797,68" fill="#120B03"/><polygon points="2249,41 2241,65 2257,65" fill="#120B03"/></g>
</g>
</svg>