<svg xmlns="http://www.w3.org/2000/svg" viewBox="0 0 2400 400" width="1200" height="200" shape-rendering="geometricPrecision">
  <!-- Grain Dusk — Faded | Group D | faded, grain, film, dusk -->
  <defs>
    <linearGradient id="bg15" x1="0" y1="0" x2="0" y2="1"><stop offset="0%" stop-color="#FFFAED"/><stop offset="55%" stop-color="#907068"/><stop offset="100%" stop-color="#1B1414"/></linearGradient>
    <filter id="gr15" x="0" y="0" width="100%" height="100%"><feTurbulence type="fractalNoise" baseFrequency="0.68" numOctaves="3" stitchTiles="stitch" seed="10015" result="nz"/><feColorMatrix type="saturate" values="0" in="nz" result="gnz"/><feBlend in="SourceGraphic" in2="gnz" mode="soft-light"/></filter>
    <filter id="dp15"><feTurbulence type="turbulence" baseFrequency="0.020" numOctaves="2" seed="10022" result="dn"/><feDisplacementMap in="SourceGraphic" in2="dn" scale="6" xChannelSelector="R" yChannelSelector="G"/></filter>
  </defs>
  <g filter="url(#gr15)">
  <rect width="1200" height="200" fill="url(#bg15)"/>
  <circle cx="692" cy="160" r="55" fill="#FFFFFF" opacity="0.74"/>
  <polygon points="0,400 0,330 141,350 282,331 423,360 564,318 705,317 847,357 988,351 1129,343 1270,363 1411,320 1552,339 1694,315 1835,338 1976,337 2117,340 2258,376 2400,333 2400,400" fill="#E8DCD0" filter="url(#dp15)"/>
  <polygon points="0,400 0,306 141,292 282,288 423,288 564,271 705,293 847,306 988,281 1129,303 1270,291 1411,286 1552,320 1694,280 1835,269 1976,295 2117,290 2258,299 2400,269 2400,400" fill="#C0A090" filter="url(#dp15)"/>
  <polygon points="0,400 0,234 141,265 282,240 423,228 564,243 705,265 847,250 988,273 1129,229 1270,273 1411,245 1552,228 1694,232 1835,254 1976,248 2117,271 2258,255 2400,262 2400,400" fill="#907068" filter="url(#dp15)"/>
  <polygon points="0,400 0,191 141,210 282,189 423,184 564,205 705,223 847,200 988,190 1129,189 1270,205 1411,204 1552,207 1694,213 1835,186 1976,200 2117,184 2258,213 2400,193 2400,400" fill="#604850" filter="url(#dp15)"/>
  <polygon points="0,400 0,172 141,141 282,159 423,170 564,166 705,150 847,150 988,157 1129,160 1270,160 1411,155 1552,157 1694,140 1835,157 1976,168 2117,157 2258,151 2400,158 2400,400" fill="#201818" filter="url(#dp15)"/>
  <polygon points="0,400 0,109 141,117 282,104 423,102 564,104 705,99 847,102 988,106 1129,105 1270,105 1411,112 1552,116 1694,115 1835,116 1976,108 2117,104 2258,106 2400,119 2400,400" fill="#E8DCD0" filter="url(#dp15)"/>
  <polygon points="0,400 0,61 141,61 282,61 423,71 564,65 705,70 847,66 988,58 1129,63 1270,71 1411,64 1552,68 1694,69 1835,58 1976,63 2117,68 2258,68 2400,58 2400,400" fill="#C0A090" filter="url(#dp15)"/>
  <g id="trees"><polygon points="1654,38 1644,69 1664,69" fill="#0E0B0B"/><polygon points="28,38 21,61 35,61" fill="#0E0B0B"/><polygon points="386,45 379,68 393,68" fill="#0E0B0B"/><polygon points="1269,48 1262,71 1276,71" fill="#0E0B0B"/><polygon points="796,32 784,68 808,68" fill="#0E0B0B"/><polygon points="339,36 330,65 348,65" fill="#0E0B0B"/><polygon points="1663,32 1651,69 1675,69" fill="#0E0B0B"/><polygon points="1456,41 1448,65 1464,65" fill="#0E0B0B"/><polygon points="131,35 123,61 139,61" fill="#0E0B0B"/><polygon points="1660,45 1652,69 1668,69" fill="#0E0B0B"/><polygon points="61,27 50,61 72,61" fill="#0E0B0B"/><polygon points="2000,48 1995,64 2005,64" fill="#0E0B0B"/><polygon points="1540,36 1530,68 1550,68" fill="#0E0B0B"/><polygon points="731,48 724,70 738,70" fill="#0E0B0B"/><polygon points="88,23 76,61 100,61" fill="#0E0B0B"/><polygon points="1540,36 1530,68 1550,68" fill="#0E0B0B"/><polygon points="2214,28 2201,68 2227,68" fill="#0E0B0B"/><polygon points="1202,41 1194,67 1210,67" fill="#0E0B0B"/><polygon points="1816,23 1804,60 1828,60" fill="#0E0B0B"/><polygon points="1363,29 1351,66 1375,66" fill="#0E0B0B"/><polygon points="2394,32 2385,59 2403,59" fill="#0E0B0B"/><polygon points="1952,37 1944,62 1960,62" fill="#0E0B0B"/><polygon points="1589,48 1583,68 1595,68" fill="#0E0B0B"/><polygon points="288,46 283,61 293,61" fill="#0E0B0B"/><polygon points="1253,47 1246,70 1260,70" fill="#0E0B0B"/><polygon points="2220,36 2210,68 2230,68" fill="#0E0B0B"/></g>
</g>
</svg>