<svg xmlns="http://www.w3.org/2000/svg" viewBox="0 0 2400 400" width="1200" height="200" shape-rendering="geometricPrecision">
  <!-- Scratch Night — Dark | Group D | dark, scratch, ink, night -->
  <defs>
    <linearGradient id="bg16" x1="0" y1="0" x2="0" y2="1"><stop offset="0%" stop-color="#362D2D"/><stop offset="55%" stop-color="#807070"/><stop offset="100%" stop-color="#C0B9B9"/></linearGradient>
    <filter id="gr16" x="0" y="0" width="100%" height="100%"><feTurbulence type="fractalNoise" baseFrequency="0.68" numOctaves="3" stitchTiles="stitch" seed="10016" result="nz"/><feColorMatrix type="saturate" values="0" in="nz" result="gnz"/><feBlend in="SourceGraphic" in2="gnz" mode="soft-light"/></filter>
    <filter id="dp16"><feTurbulence type="turbulence" baseFrequency="0.020" numOctaves="2" seed="10023" result="dn"/><feDisplacementMap in="SourceGraphic" in2="dn" scale="6" xChannelSelector="R" yChannelSelector="G"/></filter>
  </defs>
  <g filter="url(#gr16)">
  <rect width="1200" height="200" fill="url(#bg16)"/>
  <circle cx="363" cy="40" r="31" fill="#453A3A" opacity="0.74"/>
  <polygon points="0,400 0,349 141,358 282,329 423,349 564,316 705,353 847,319 988,343 1129,335 1270,342 1411,365 1552,372 1694,324 1835,373 1976,375 2117,348 2258,376 2400,343 2400,400" fill="#302828" filter="url(#dp16)"/>
  <polygon points="0,400 0,291 141,303 282,261 423,299 564,261 705,287 847,299 988,302 1129,294 1270,312 1411,277 1552,267 1694,310 1835,269 1976,262 2117,269 2258,298 2400,272 2400,400" fill="#504848" filter="url(#dp16)"/>
  <polygon points="0,400 0,228 141,224 282,233 423,251 564,243 705,221 847,240 988,244 1129,216 1270,214 1411,247 1552,225 1694,223 1835,248 1976,244 2117,240 2258,224 2400,239 2400,400" fill="#807070" filter="url(#dp16)"/>
  <polygon points="0,400 0,185 141,170 282,188 423,173 564,159 705,172 847,157 988,165 1129,171 1270,169 1411,176 1552,170 1694,168 1835,180 1976,158 2117,176 2258,166 2400,180 2400,400" fill="#B0A0A0" filter="url(#dp16)"/>
  <polygon points="0,400 0,130 141,107 282,113 423,125 564,107 705,106 847,111 988,121 1129,114 1270,114 1411,130 1552,129 1694,106 1835,131 1976,116 2117,121 2258,108 2400,115 2400,400" fill="#E0D8D8" filter="url(#dp16)"/>
  <polygon points="0,400 0,56 141,68 282,58 423,57 564,58 705,58 847,64 988,67 1129,63 1270,64 1411,69 1552,71 1694,60 1835,63 1976,60 2117,71 2258,65 2400,67 2400,400" fill="#302828" filter="url(#dp16)"/>
  <g id="trees"><polygon points="261,26 250,59 272,59" fill="#676363"/><polygon points="608,42 603,58 613,58" fill="#676363"/><polygon points="1869,37 1861,62 1877,62" fill="#676363"/><polygon points="1385,53 1380,68 1390,68" fill="#676363"/><polygon points="2191,28 2178,68 2204,68" fill="#676363"/><polygon points="1676,41 1670,61 1682,61" fill="#676363"/><polygon points="1916,43 1910,61 1922,61" fill="#676363"/><polygon points="739,29 729,59 749,59" fill="#676363"/><polygon points="724,43 719,58 729,58" fill="#676363"/><polygon points="2052,37 2043,66 2061,66" fill="#676363"/><polygon points="477,34 469,58 485,58" fill="#676363"/><polygon points="706,43 701,58 711,58" fill="#676363"/><polygon points="213,39 205,63 221,63" fill="#676363"/><polygon points="247,22 235,60 259,60" fill="#676363"/><polygon points="95,40 87,64 103,64" fill="#676363"/><polygon points="1228,45 1222,63 1234,63" fill="#676363"/><polygon points="108,26 95,65 121,65" fill="#676363"/><polygon points="132,39 123,67 141,67" fill="#676363"/><polygon points="1535,47 1527,71 1543,71" fill="#676363"/><polygon points="60,32 51,61 69,61" fill="#676363"/><polygon points="2397,46 2390,67 2404,67" fill="#676363"/><polygon points="2265,42 2258,65 2272,65" fill="#676363"/><polygon points="413,25 403,57 423,57" fill="#676363"/><polygon points="1932,27 1921,61 1943,61" fill="#676363"/><polygon points="1795,42 1789,62 1801,62" fill="#676363"/><polygon points="778,26 767,61 789,61" fill="#676363"/><polygon points="919,35 909,65 929,65" fill="#676363"/><polygon points="675,23 664,58 686,58" fill="#676363"/><polygon points="643,42 638,58 648,58" fill="#676363"/><polygon points="2216,40 2207,67 2225,67" fill="#676363"/><polygon points="817,45 811,63 823,63" fill="#676363"/><polygon points="2061,51 2056,67 2066,67" fill="#676363"/><polygon points="2180,49 2174,68 2186,68" fill="#676363"/><polygon points="1100,24 1087,63 1113,63" fill="#676363"/><polygon points="826,29 815,63 837,63" fill="#676363"/><polygon points="866,34 856,65 876,65" fill="#676363"/><polygon points="1672,31 1662,62 1682,62" fill="#676363"/><polygon points="428,34 421,57 435,57" fill="#676363"/><polygon points="1154,40 1147,63 1161,63" fill="#676363"/><polygon points="845,24 832,64 858,64" fill="#676363"/><polygon points="1501,39 1491,70 1511,70" fill="#676363"/><polygon points="2357,32 2346,66 2368,66" fill="#676363"/><polygon points="259,23 247,59 271,59" fill="#676363"/><polygon points="1275,37 1266,64 1284,64" fill="#676363"/><polygon points="1957,32 1948,61 1966,61" fill="#676363"/><polygon points="387,39 381,58 393,58" fill="#676363"/></g>
</g>
</svg>